<svg xmlns="http://www.w3.org/2000/svg" width="1500" viewBox="0 0 1500 667.5" height="667.5" version="1.0"><defs><clipPath id="a"><path d="M 168.734375 602 L 212.746094 602 L 212.746094 632.664062 L 168.734375 632.664062 Z M 168.734375 602"/></clipPath><clipPath id="b"><path d="M 246.234375 289 L 299.058594 289 L 299.058594 336 L 246.234375 336 Z M 246.234375 289"/></clipPath><clipPath id="c"><path d="M 57.21875 184 L 248 184 L 248 362 L 57.21875 362 Z M 57.21875 184"/></clipPath><clipPath id="d"><path d="M 1323 129 L 1378.828125 129 L 1378.828125 234 L 1323 234 Z M 1323 129"/></clipPath><clipPath id="e"><path d="M 1322 127.53125 L 1366 127.53125 L 1366 165 L 1322 165 Z M 1322 127.53125"/></clipPath><clipPath id="f"><path d="M 1272 605 L 1312 605 L 1312 632.652344 L 1272 632.652344 Z M 1272 605"/></clipPath><clipPath id="g"><path d="M 1224 607 L 1266 607 L 1266 632.652344 L 1224 632.652344 Z M 1224 607"/></clipPath><clipPath id="h"><path d="M 487 433.132812 L 727.75 433.132812 L 727.75 631 L 487 631 Z M 487 433.132812"/></clipPath></defs><path fill="#FFF" d="M 60.429688 251.574219 L 91.796875 266.753906 L 106.453125 266.316406 L 146.277344 251.390625 L 148.105469 270.75 C 148.105469 270.75 150.140625 272.195312 154.207031 272.644531 L 154.355469 285.117188 L 150.0625 290.175781 L 155.257812 307.203125 L 157.765625 296.585938 L 165.9375 316.394531 L 175.359375 292.789062 L 178.332031 302.929688 C 178.332031 302.929688 182.394531 296.605469 177.28125 286.496094 C 177.28125 286.496094 172.570312 276.65625 175.976562 269.585938 C 175.976562 269.585938 187.949219 261.105469 193.691406 249.808594 C 193.691406 249.808594 206.511719 255.996094 208.984375 241.519531 C 211.457031 227.042969 198.003906 231.035156 196.179688 233.839844 C 196.179688 233.839844 182.851562 238.679688 172.570312 228.59375 C 172.570312 228.59375 161.625 238.148438 153.003906 234.863281 C 144.378906 231.574219 140.609375 218.535156 140.609375 218.535156 C 140.609375 218.535156 131.597656 231.597656 123.75 237.167969 C 115.902344 242.734375 103.328125 255.371094 99.265625 263.878906 C 99.265625 263.878906 83.890625 248.855469 72.042969 244.21875 L 60.429688 251.574219"/><path fill="#FFF" d="M 247.164062 318.757812 L 265.449219 309.207031 C 265.449219 309.207031 268.261719 296.066406 278.140625 304.625 L 270.789062 292.789062 L 275.710938 290.644531 L 280.386719 299.203125 L 293.738281 298.128906 L 291.835938 301.585938 C 291.835938 301.585938 296.542969 309.710938 297.253906 312.378906 C 297.964844 315.050781 295.53125 320.183594 291.316406 319.203125 L 296.980469 330.738281 L 288.847656 324.785156 L 286.554688 320.976562 L 275.875 319.980469 C 275.875 319.980469 258.496094 328.691406 255.878906 334.183594 C 255.878906 334.183594 248.035156 328.242188 247.164062 318.757812"/><path fill="#FFF" d="M 93.183594 305.640625 C 93.183594 305.640625 87.382812 325.210938 94.480469 336.015625 C 101.574219 346.828125 114.050781 357.441406 117.671875 360.394531 C 117.671875 360.394531 126.234375 352.867188 129.828125 345.476562 L 116.769531 334.183594 C 116.769531 334.183594 115.539062 323.695312 119.109375 312.414062 C 122.675781 301.132812 119.109375 298.546875 119.109375 298.546875 L 103.566406 296.800781 L 93.183594 305.640625"/><path fill="#FFF" d="M 137.078125 373.386719 C 137.078125 373.386719 167.257812 386.292969 199.039062 374.636719 L 210.1875 450.257812 L 193.628906 455.117188 L 193.207031 491.785156 C 193.207031 491.785156 180.8125 494.457031 169.980469 492.3125 L 169.238281 457.785156 L 161.363281 457.535156 L 161.582031 489.671875 C 161.582031 489.671875 145.746094 492.550781 138.265625 489.339844 L 136.082031 452.96875 L 126.742188 449.730469 C 126.742188 449.730469 135.867188 384.78125 137.078125 373.386719"/><path fill="#FFF" d="M 141.109375 329.949219 C 140.15625 342.039062 139.0625 354.121094 137.839844 366.183594 C 137.652344 368.019531 140.527344 368.003906 140.710938 366.183594 C 141.933594 354.121094 143.023438 342.039062 143.976562 329.949219 C 144.125 328.109375 141.253906 328.121094 141.109375 329.949219"/><path fill="#FFF" d="M 90.914062 272.683594 C 91.296875 279.28125 91.683594 285.882812 92.066406 292.480469 C 92.148438 293.855469 94.300781 293.867188 94.21875 292.480469 C 93.835938 285.882812 93.453125 279.28125 93.066406 272.683594 C 92.988281 271.308594 90.835938 271.300781 90.914062 272.683594"/><path fill="#FFF" d="M 105.5625 277.164062 C 105.898438 282.535156 106.226562 287.90625 106.554688 293.273438 C 106.640625 294.648438 108.792969 294.65625 108.707031 293.273438 C 108.378906 287.90625 108.050781 282.535156 107.71875 277.164062 C 107.636719 275.789062 105.480469 275.78125 105.5625 277.164062"/><path fill="#FFF" d="M 139.535156 329.164062 C 138.726562 339.488281 137.765625 349.785156 136.65625 360.085938 C 136.507812 361.457031 138.660156 361.449219 138.808594 360.085938 C 139.917969 349.785156 140.878906 339.488281 141.6875 329.164062 C 141.796875 327.785156 139.640625 327.792969 139.535156 329.164062"/><path fill="#DCC1B1" d="M 193.636719 490.152344 C 182.023438 494.867188 169.726562 490.152344 169.726562 490.152344 L 170.042969 603.257812 C 192.269531 622.144531 196.5 612.519531 196.5 612.519531 C 193.394531 610.144531 185.65625 604.90625 185.65625 604.90625 C 188.632812 584.84375 193.636719 490.152344 193.636719 490.152344"/><path fill="#DCC1B1" d="M 138.265625 489.339844 L 144.101562 594.828125 C 137.304688 594.019531 130.769531 595.863281 130.769531 595.863281 C 141.0625 603.261719 159.914062 599.757812 159.914062 599.757812 L 161.582031 489.671875 C 151.414062 492.199219 138.265625 489.339844 138.265625 489.339844"/><path fill="#DCC1B1" d="M 138.808594 360.085938 C 138.660156 361.449219 136.507812 361.457031 136.65625 360.085938 C 137.765625 349.785156 138.726562 339.488281 139.535156 329.164062 C 139.640625 327.792969 141.796875 327.785156 141.6875 329.164062 C 140.878906 339.488281 139.917969 349.785156 138.808594 360.085938 Z M 248.761719 317.777344 C 244.214844 320.699219 229.871094 328.308594 229.871094 328.308594 C 223.054688 317.773438 206.296875 304.199219 192.269531 292.902344 C 178.242188 281.613281 177.28125 286.496094 177.28125 286.496094 C 181.84375 301.574219 178.839844 305.640625 178.839844 305.640625 L 175.359375 292.789062 L 165.839844 313.039062 L 158.148438 296.585938 C 156.355469 299.722656 155.257812 307.203125 155.257812 307.203125 C 152.011719 302.816406 150.515625 294.214844 150.515625 294.214844 L 153.003906 319.375 L 134.550781 326.5625 C 130.730469 330.152344 129.292969 345.070312 129.292969 345.070312 C 128.082031 351.820312 117.671875 360.394531 117.671875 360.394531 C 127.09375 370.773438 137.078125 373.386719 137.078125 373.386719 C 171.027344 387.675781 199.039062 374.636719 199.039062 374.636719 L 193.503906 330.511719 C 193.503906 330.511719 226.203125 351.597656 232.402344 354.1875 C 238.601562 356.777344 255.878906 334.183594 255.878906 334.183594 C 249.910156 329.925781 248.761719 317.777344 248.761719 317.777344"/><path fill="#100F0D" d="M 168.648438 490.152344 C 168.65625 491.535156 170.808594 491.535156 170.800781 490.152344 C 170.753906 479.660156 170.359375 469.175781 170.324219 458.679688 C 177.765625 458.59375 185.203125 457.808594 192.550781 456.332031 C 192.578125 467.609375 192.417969 478.878906 192.113281 490.152344 C 192.074219 491.535156 194.226562 491.535156 194.265625 490.152344 C 194.574219 478.726562 194.734375 467.304688 194.703125 455.878906 C 200.019531 454.707031 205.289062 453.183594 210.472656 451.296875 C 211.550781 450.902344 211.339844 449.394531 210.476562 449.183594 C 210.570312 448.992188 210.632812 448.777344 210.597656 448.523438 C 207.230469 423.867188 203.863281 399.207031 200.492188 374.550781 C 200.304688 373.183594 198.230469 373.765625 198.417969 375.121094 C 201.785156 399.777344 205.152344 424.4375 208.523438 449.09375 C 208.554688 449.332031 208.660156 449.488281 208.78125 449.617188 C 182.414062 458.925781 154.140625 458.925781 127.929688 449.03125 C 131.941406 423.902344 135.324219 398.671875 138.15625 373.386719 C 138.3125 372.015625 136.15625 372.023438 136.003906 373.386719 C 133.15625 398.816406 129.746094 424.175781 125.703125 449.445312 C 125.664062 449.671875 125.710938 449.867188 125.785156 450.050781 C 125.878906 450.351562 126.085938 450.625 126.453125 450.765625 C 129.292969 451.863281 132.164062 452.839844 135.050781 453.710938 C 135.820312 465.582031 136.523438 477.464844 137.195312 489.339844 C 137.273438 490.714844 139.425781 490.722656 139.347656 489.339844 C 138.691406 477.671875 137.996094 466.007812 137.242188 454.347656 C 144.828125 456.46875 152.542969 457.8125 160.304688 458.378906 C 160.511719 468.96875 160.679688 479.558594 160.777344 490.152344 C 160.792969 491.535156 162.945312 491.535156 162.929688 490.152344 C 162.832031 479.605469 162.664062 469.058594 162.460938 458.511719 C 164.363281 458.617188 166.269531 458.679688 168.171875 458.691406 C 168.207031 469.183594 168.601562 479.664062 168.648438 490.152344"/><g clip-path="url(#a)"><path fill="#100F0D" d="M 196.617188 610.761719 C 196.542969 610.683594 196.457031 610.625 196.359375 610.566406 C 196.152344 610.445312 195.941406 610.398438 195.734375 610.410156 C 195.359375 610.421875 194.992188 610.597656 194.789062 610.992188 C 194.738281 611.074219 194.699219 611.15625 194.667969 611.246094 C 192.152344 617.882812 173.425781 604.867188 170.8125 602.320312 C 170.804688 602.316406 170.796875 602.3125 170.789062 602.304688 C 170.789062 602.304688 170.789062 602.300781 170.785156 602.300781 C 170.433594 601.976562 170.023438 601.953125 169.679688 602.105469 C 169.378906 602.199219 169.136719 602.433594 169.035156 602.777344 C 168.984375 602.914062 168.964844 603.058594 168.972656 603.203125 C 168.976562 605.089844 168.972656 606.96875 168.964844 608.851562 C 168.875 609.164062 168.953125 609.515625 169.285156 609.804688 C 169.289062 609.808594 169.292969 609.8125 169.296875 609.8125 C 169.304688 609.816406 169.308594 609.824219 169.3125 609.828125 C 181.476562 620.371094 195.570312 628.078125 211.023438 632.617188 C 211.996094 632.90625 212.609375 631.84375 212.238281 631.039062 C 208.582031 623.128906 203.273438 616.378906 196.617188 610.761719"/></g><path fill="#100F0D" d="M 159.898438 599.03125 C 150.242188 600.210938 140.871094 597.878906 131.625 595.335938 C 131.398438 594.992188 130.996094 594.746094 130.480469 594.828125 C 130.292969 594.859375 130.101562 594.898438 129.910156 594.929688 C 129.828125 594.933594 129.75 594.949219 129.675781 594.972656 C 121.035156 596.515625 113.382812 599.691406 106.484375 605.230469 C 105.867188 605.722656 106.207031 606.878906 106.957031 607.023438 C 124.539062 610.421875 142.53125 610.359375 159.929688 605.941406 C 160.445312 605.8125 160.675781 605.425781 160.691406 605.011719 C 160.699219 604.976562 160.71875 604.945312 160.71875 604.90625 C 160.808594 603.304688 160.890625 601.703125 160.976562 600.105469 C 160.976562 600.097656 160.976562 600.09375 160.976562 600.089844 C 160.988281 599.859375 160.921875 599.683594 160.832031 599.527344 C 160.691406 599.203125 160.382812 598.972656 159.898438 599.03125"/><g clip-path="url(#b)"><path fill="#100F0D" d="M 276.410156 318.992188 C 276.195312 318.855469 275.917969 318.816406 275.589844 318.945312 C 269.636719 321.269531 264.53125 324.84375 259.828125 328.992188 C 259.800781 328.9375 259.773438 328.886719 259.734375 328.828125 C 257.066406 325.125 255.28125 320.832031 253.378906 316.691406 C 257.625 314.589844 261.859375 312.460938 265.992188 310.136719 C 266.027344 310.117188 266.054688 310.09375 266.085938 310.070312 C 266.101562 310.058594 266.117188 310.046875 266.136719 310.035156 C 266.351562 309.871094 266.46875 309.664062 266.503906 309.441406 C 267.164062 307.1875 269.46875 302.28125 272.414062 303.03125 C 274.726562 303.621094 277.171875 305.53125 279.289062 307.1875 C 277.066406 307.773438 274.828125 307.921875 272.453125 307.570312 C 271.101562 307.371094 270.511719 309.441406 271.882812 309.640625 C 274.140625 309.976562 276.292969 309.964844 278.429688 309.574219 C 280.628906 313.226562 282.824219 316.875 285.027344 320.527344 C 282.148438 320.039062 279.316406 319.332031 276.410156 318.992188 Z M 255.460938 333.09375 C 252.195312 329.300781 249.882812 323.777344 248.875 318.917969 C 249.734375 318.492188 250.597656 318.066406 251.457031 317.640625 C 253.382812 321.824219 255.179688 326.167969 257.875 329.914062 C 258.015625 330.109375 258.1875 330.230469 258.371094 330.304688 C 257.382812 331.214844 256.414062 332.144531 255.460938 333.09375 Z M 277.390625 295.371094 C 278.953125 298.273438 280.503906 301.191406 282.054688 304.109375 C 282.566406 305.078125 283.082031 306.046875 283.597656 307.015625 C 282.316406 309.910156 281.726562 312.710938 284.601562 312.136719 C 285.070312 312.042969 285.523438 311.796875 285.960938 311.457031 C 287.890625 315.082031 289.824219 318.707031 291.789062 322.316406 C 292.519531 324.15625 293.273438 325.984375 294.03125 327.816406 C 292.648438 326.5 291.214844 325.246094 289.6875 324.09375 C 286.667969 319.074219 283.644531 314.0625 280.621094 309.042969 C 281.03125 308.917969 281.441406 308.777344 281.851562 308.617188 C 282.753906 308.277344 282.878906 307.214844 282.105469 306.65625 C 280.679688 305.617188 279.230469 304.59375 277.746094 303.632812 C 277.726562 303.523438 277.695312 303.414062 277.636719 303.304688 C 275.84375 299.816406 274.066406 296.320312 272.28125 292.828125 C 273.105469 292.496094 274.015625 292.117188 273.824219 292.125 C 276.316406 292.042969 276.316406 293.375 277.390625 295.371094 Z M 284.832031 309.339844 C 284.859375 309.386719 284.882812 309.4375 284.910156 309.484375 C 284.800781 309.589844 284.765625 309.558594 284.832031 309.339844 Z M 291.824219 299.398438 C 290.292969 302.160156 288.566406 304.8125 286.582031 307.292969 C 286.507812 307.386719 286.425781 307.492188 286.339844 307.601562 C 286.210938 307.355469 286.082031 307.113281 285.953125 306.867188 C 286.71875 305.351562 287.59375 303.898438 288.554688 302.492188 C 289.332031 301.34375 287.464844 300.269531 286.691406 301.410156 C 286.46875 301.738281 285.636719 303.046875 284.773438 304.644531 C 284.007812 303.210938 283.242188 301.773438 282.480469 300.339844 C 285.59375 300.023438 288.710938 299.710938 291.824219 299.398438 Z M 295.289062 310.816406 C 296.449219 313.136719 296.972656 315.730469 293.96875 317.246094 C 293.34375 317.5625 292.597656 317.761719 291.878906 317.945312 C 290.421875 315.242188 288.96875 312.535156 287.527344 309.824219 C 288.34375 308.777344 289.054688 307.613281 289.613281 306.859375 C 290.355469 305.855469 291.054688 304.816406 291.726562 303.765625 C 292.90625 306.125 294.117188 308.457031 295.289062 310.816406 Z M 293.777344 321.519531 C 293.773438 321.511719 293.769531 321.503906 293.765625 321.496094 C 293.742188 321.417969 293.707031 321.339844 293.667969 321.261719 C 293.417969 320.800781 293.171875 320.339844 292.921875 319.878906 C 295.554688 319.152344 298.757812 318.035156 299.042969 315.050781 C 299.214844 313.230469 297.917969 311.265625 297.152344 309.730469 C 295.792969 307.015625 294.382812 304.328125 293.046875 301.605469 C 293.609375 300.640625 294.15625 299.667969 294.667969 298.671875 C 295.003906 298.019531 294.609375 296.964844 293.738281 297.054688 C 289.699219 297.460938 285.65625 297.867188 281.617188 298.277344 C 281.539062 298.285156 281.484375 298.320312 281.414062 298.339844 C 279.851562 295.414062 278.285156 292.488281 276.699219 289.578125 C 276.484375 289.1875 275.914062 288.925781 275.480469 289.082031 C 273.777344 289.707031 272.210938 290.609375 270.503906 291.234375 C 270.230469 291.332031 270.046875 291.507812 269.925781 291.714844 C 269.722656 292.007812 269.648438 292.402344 269.859375 292.8125 C 271.363281 295.75 272.859375 298.683594 274.363281 301.621094 C 273.039062 300.902344 272.0625 300.257812 270.578125 300.761719 C 267.601562 301.78125 265.476562 305.578125 264.546875 308.476562 C 258.847656 311.664062 252.96875 314.496094 247.117188 317.390625 C 246.601562 317.644531 246.492188 318.117188 246.625 318.535156 C 246.628906 318.558594 246.617188 318.578125 246.625 318.605469 C 247.652344 324.355469 250.570312 331.15625 254.65625 335.40625 C 254.921875 335.683594 255.226562 335.761719 255.511719 335.71875 C 255.738281 335.703125 255.972656 335.613281 256.179688 335.40625 C 262.007812 329.554688 268.285156 324.117188 276.0625 321.054688 C 276.128906 321.078125 276.183594 321.113281 276.257812 321.117188 C 279.691406 321.507812 283.027344 322.429688 286.449219 322.886719 C 286.941406 323.699219 287.429688 324.511719 287.917969 325.328125 C 288.023438 325.5 288.15625 325.617188 288.292969 325.699219 C 288.300781 325.703125 288.300781 325.707031 288.308594 325.710938 C 291.195312 327.847656 293.691406 330.453125 296.21875 332.988281 C 296.929688 333.699219 298.429688 332.980469 298.019531 331.945312 C 296.644531 328.453125 295.152344 325.007812 293.777344 321.519531"/></g><g clip-path="url(#c)"><path fill="#100F0D" d="M 196.808594 234.820312 C 199.308594 232.246094 203.347656 231.578125 206.125 234.347656 C 208.347656 236.5625 208.710938 240.214844 207.96875 243.125 C 206.460938 249.011719 200.214844 252.398438 194.878906 249.273438 C 196.421875 244.808594 197.136719 239.941406 196.808594 234.820312 Z M 149.550781 270.382812 C 149.433594 270.351562 149.328125 270.335938 149.226562 270.335938 C 148.601562 264.019531 147.976562 257.707031 147.351562 251.390625 C 147.324219 251.121094 147.203125 250.917969 147.050781 250.753906 C 146.863281 250.324219 146.433594 250.03125 145.859375 250.253906 C 145.316406 250.457031 144.773438 250.667969 144.230469 250.871094 C 144.164062 250.796875 144.09375 250.730469 144 250.667969 C 140.546875 248.421875 137.007812 246.320312 133.378906 244.363281 C 133.285156 244.3125 133.195312 244.28125 133.105469 244.257812 C 132.894531 243.863281 132.476562 243.59375 131.917969 243.753906 C 128.886719 244.628906 125.941406 245.695312 123.085938 246.9375 C 123.128906 244.238281 122.84375 241.582031 122.234375 238.953125 C 129.511719 235.070312 135.394531 228.664062 139.933594 221.65625 C 141.171875 227.03125 144.410156 231.902344 149.464844 234.609375 C 156.894531 238.582031 166.589844 236.582031 173.203125 231.84375 C 176.089844 234.015625 179.65625 235.328125 183.410156 235.96875 C 186.175781 236.441406 191.300781 237.183594 194.710938 235.964844 C 195.484375 259.773438 172.714844 277.488281 149.550781 270.382812 Z M 175.625 284.609375 C 174.054688 286.601562 172.476562 288.585938 170.902344 290.574219 C 170.066406 291.636719 169.296875 293.054688 168.269531 293.902344 C 166.851562 295.070312 166.558594 295.152344 165.039062 294.152344 C 161.492188 291.820312 158.507812 287.667969 155.421875 284.660156 C 155.300781 281.070312 155.429688 277.484375 155.285156 273.894531 C 155.285156 273.859375 155.269531 273.835938 155.265625 273.800781 C 162.007812 274.671875 168.570312 273.636719 174.421875 271.128906 C 173.847656 275.71875 174.21875 280.191406 175.625 284.609375 Z M 178.574219 299.429688 C 177.960938 297.09375 177.246094 294.789062 176.398438 292.5 C 176.136719 291.800781 175.488281 291.566406 174.816406 291.859375 C 173.734375 292.328125 172.652344 292.796875 171.566406 293.257812 C 173.1875 291.246094 174.765625 289.191406 176.351562 287.15625 C 177.511719 291.257812 178.566406 295.289062 178.574219 299.429688 Z M 157.109375 294.699219 C 156.378906 297.789062 155.644531 300.878906 154.917969 303.972656 C 153.488281 298.085938 151.597656 288.585938 154.175781 286.445312 C 156.339844 288.511719 158.4375 290.644531 160.554688 292.753906 C 161.140625 293.339844 161.835938 294.214844 162.601562 295.054688 C 161.183594 294.832031 159.792969 294.503906 158.429688 293.949219 C 157.90625 293.730469 157.230469 294.183594 157.109375 294.699219 Z M 151.066406 288.960938 C 150.53125 283.503906 149.988281 278.042969 149.449219 272.585938 C 150.703125 272.949219 151.953125 273.25 153.203125 273.480469 C 153.15625 273.605469 153.128906 273.738281 153.132812 273.894531 C 153.273438 277.425781 153.152344 280.964844 153.265625 284.496094 C 151.558594 285.53125 151.113281 287.109375 151.066406 288.960938 Z M 124.503906 341.730469 C 121.5 346.703125 116.996094 350.933594 112.710938 354.867188 C 104.6875 347.472656 97.554688 339.195312 91.882812 329.820312 C 91.839844 329.753906 91.792969 329.695312 91.742188 329.640625 C 91.613281 326.078125 91.460938 314.617188 94.460938 307.375 C 98.050781 298.714844 97.886719 308.761719 97.402344 319.375 C 97.402344 319.375 99.511719 307.261719 101.515625 302.929688 C 103.519531 298.601562 105.421875 298.652344 104.679688 306.34375 C 103.9375 314.035156 103.296875 318.84375 103.296875 318.84375 C 103.296875 318.84375 105.890625 309.453125 108.632812 305.054688 C 111.378906 300.648438 114.117188 296.5 109.558594 317.226562 C 109.558594 317.226562 110.566406 313.628906 111.996094 311.597656 C 113.425781 309.566406 116.441406 305.09375 115.558594 310.425781 C 114.675781 315.75 113.742188 318.464844 114.042969 322.410156 C 114.351562 326.355469 116.769531 334.183594 116.769531 334.183594 L 116.8125 334.167969 C 116.859375 334.3125 116.949219 334.453125 117.09375 334.582031 C 117.195312 334.742188 117.335938 334.863281 117.507812 334.933594 C 120.050781 336.988281 122.257812 339.378906 124.503906 341.730469 Z M 128.496094 345.65625 C 125.699219 350.773438 121.972656 355.339844 117.515625 359.109375 C 116.429688 358.195312 115.351562 357.273438 114.292969 356.328125 C 118.550781 352.417969 122.957031 348.210938 126.039062 343.3125 C 126.835938 344.121094 127.652344 344.898438 128.496094 345.65625 Z M 72.121094 245.441406 C 82.085938 250.109375 90.234375 256.855469 97.285156 265.230469 C 95.621094 265.21875 93.960938 265.210938 92.296875 265.222656 C 82.347656 260.683594 72.085938 256.863281 62.546875 251.507812 C 65.738281 249.484375 68.929688 247.460938 72.121094 245.441406 Z M 107.71875 277.164062 C 108.050781 282.535156 108.378906 287.90625 108.707031 293.273438 C 108.792969 294.65625 106.640625 294.648438 106.554688 293.273438 C 106.226562 287.90625 105.898438 282.535156 105.5625 277.164062 C 105.480469 275.78125 107.636719 275.789062 107.71875 277.164062 Z M 90.914062 272.683594 C 90.835938 271.300781 92.988281 271.308594 93.066406 272.683594 C 93.453125 279.28125 93.835938 285.882812 94.21875 292.480469 C 94.300781 293.867188 92.148438 293.855469 92.066406 292.480469 C 91.683594 285.882812 91.296875 279.28125 90.914062 272.683594 Z M 131.992188 245.976562 C 132.070312 246.066406 132.167969 246.148438 132.292969 246.214844 C 135.527344 247.960938 138.6875 249.828125 141.785156 251.804688 C 130.039062 256.273438 118.300781 260.746094 106.5625 265.21875 C 106.539062 265.226562 106.519531 265.242188 106.5 265.25 C 106.480469 265.246094 106.46875 265.242188 106.453125 265.242188 C 104.609375 265.253906 102.757812 265.242188 100.910156 265.234375 C 109.433594 256.089844 120 249.53125 131.992188 245.976562 Z M 120.359375 240.539062 C 120.785156 242.699219 120.980469 244.875 120.9375 247.089844 C 120.929688 247.394531 121.042969 247.621094 121.203125 247.789062 C 114.242188 251.0625 107.882812 255.414062 102.289062 260.769531 C 106.996094 252.945312 113.054688 246.125 120.359375 240.539062 Z M 247.039062 260.742188 C 247.824219 251.375 241.71875 243.746094 233.796875 239.625 C 237.320312 235.105469 237.242188 228.132812 233.640625 222.910156 C 227.433594 213.90625 214.746094 211.921875 204.832031 214.492188 C 204.6875 214.527344 204.570312 214.589844 204.46875 214.660156 C 202.601562 208.296875 198.671875 202.519531 193.191406 198.375 C 185.765625 192.765625 170.386719 187.238281 160.984375 192.3125 C 154.757812 185.292969 143.964844 183.796875 135.054688 184.726562 C 125.273438 185.746094 116.027344 190.191406 109.253906 197.324219 C 99.332031 207.777344 88.863281 238.480469 110.613281 242.433594 C 110.769531 242.527344 110.972656 242.570312 111.214844 242.539062 C 112.746094 242.339844 114.230469 242.019531 115.675781 241.613281 C 108.609375 247.703125 102.808594 254.953125 98.421875 263.25 C 91.191406 254.769531 82.824219 247.960938 72.589844 243.289062 C 72.582031 243.285156 72.574219 243.285156 72.566406 243.28125 C 72.273438 243.085938 71.894531 243.039062 71.5 243.289062 C 67.816406 245.625 64.128906 247.957031 60.445312 250.292969 C 60.148438 250.113281 59.839844 249.953125 59.542969 249.769531 C 59.378906 249.671875 59.21875 249.625 59.0625 249.613281 C 58.335938 249.488281 57.4375 250.320312 57.851562 251.242188 C 58.535156 252.773438 58.519531 257.402344 58.765625 259.628906 C 59.457031 265.867188 60.140625 272.105469 60.839844 278.335938 C 62.394531 292.222656 63.953125 306.109375 65.90625 319.945312 C 65.976562 320.453125 66.308594 320.691406 66.691406 320.714844 C 74.496094 324.421875 82.171875 328.074219 90.222656 331.21875 C 97.25 342.734375 106.410156 352.683594 116.773438 361.296875 C 117.253906 361.699219 117.835938 361.597656 118.222656 361.289062 C 118.292969 361.253906 118.363281 361.207031 118.433594 361.152344 C 123.460938 357.039062 127.648438 351.890625 130.683594 346.152344 C 131.066406 345.773438 131.1875 345.167969 130.65625 344.714844 C 126.84375 341.445312 123.746094 337.464844 119.953125 334.1875 C 131.082031 329.640625 142.148438 324.9375 153.289062 320.410156 C 153.328125 320.394531 153.359375 320.371094 153.394531 320.355469 C 153.808594 320.253906 154.136719 319.9375 154.082031 319.375 C 153.46875 313.1875 152.855469 307 152.242188 300.816406 C 152.695312 303.484375 153.253906 306.136719 153.914062 308.773438 C 154.171875 309.785156 155.75 309.808594 155.992188 308.773438 C 156.964844 304.648438 157.941406 300.527344 158.917969 296.40625 C 161.394531 297.222656 163.917969 297.410156 166.550781 297.65625 C 166.804688 297.679688 166.996094 297.609375 167.15625 297.503906 C 167.550781 297.425781 167.890625 297.253906 168.210938 297.03125 C 170.378906 296.09375 172.550781 295.160156 174.71875 294.222656 C 176.066406 298.046875 177.097656 301.925781 177.800781 305.925781 C 177.992188 307.011719 179.609375 306.886719 179.875 305.925781 C 181.90625 298.621094 179.921875 291.898438 177.933594 284.835938 C 177.960938 284.542969 177.867188 284.261719 177.699219 284.035156 C 176.351562 279.796875 175.9375 275.457031 176.578125 271.039062 C 176.625 270.714844 176.539062 270.441406 176.382812 270.21875 C 184.269531 266.285156 190.648438 259.609375 194.097656 251.324219 C 194.734375 251.683594 195.378906 251.972656 196.027344 252.183594 C 191.6875 258.039062 189.21875 265.6875 193.410156 272.359375 C 196.652344 277.515625 202.441406 280.242188 208.351562 280.128906 C 206.003906 288.871094 214.609375 294.050781 222.835938 290.675781 C 229.386719 287.988281 232.703125 281.746094 232.394531 275.445312 C 240.191406 275.023438 246.371094 268.714844 247.039062 260.742188"/></g><path fill="#FFF" d="M 1221.820312 334.949219 C 1221.226562 336.332031 1224.820312 367.546875 1224.820312 367.546875 L 1223.050781 478.199219 L 1226.25 523.648438 L 1239.683594 523.648438 L 1240.371094 474.191406 L 1260.261719 475.300781 L 1263.515625 525.585938 L 1275.289062 525.585938 L 1275.289062 473.367188 L 1273.75 359.738281 L 1269.042969 336.542969 L 1257.160156 279.136719 L 1270.40625 286.109375 C 1270.40625 286.109375 1307.109375 297.847656 1329.394531 291.808594 C 1329.394531 291.808594 1336.496094 285.316406 1339.117188 270.785156 C 1341.734375 256.253906 1348.230469 221.691406 1348.230469 221.691406 C 1348.230469 221.691406 1371.96875 203.160156 1371.5 201.503906 C 1371.03125 199.84375 1362.1875 166.414062 1361.636719 167.242188 C 1361.085938 168.070312 1364.054688 129.507812 1364.054688 129.507812 L 1348.585938 129.507812 L 1323.5 163.417969 L 1331.519531 193.523438 C 1331.519531 193.523438 1328.011719 201.101562 1331.285156 209.820312 C 1334.554688 218.546875 1335.433594 215.832031 1335.433594 215.832031 L 1318.765625 273.175781 C 1318.765625 273.175781 1272.636719 264.492188 1266.558594 261.179688 C 1266.558594 261.179688 1209.808594 281.351562 1222.703125 333.566406"/><path fill="#FFF" d="M 1342.054688 171.167969 C 1341.613281 169.488281 1339.007812 170.203125 1339.445312 171.890625 C 1341.246094 178.761719 1343.042969 185.636719 1344.835938 192.507812 C 1345.277344 194.191406 1347.886719 193.480469 1347.441406 191.792969 C 1345.648438 184.917969 1343.851562 178.046875 1342.054688 171.167969"/><path fill="#FFF" d="M 1353.710938 221.289062 C 1353.21875 219.621094 1350.609375 220.332031 1351.101562 222.007812 C 1351.757812 224.222656 1352.410156 226.441406 1353.0625 228.65625 C 1353.554688 230.316406 1356.167969 229.609375 1355.671875 227.9375 C 1355.015625 225.71875 1354.363281 223.503906 1353.710938 221.289062"/><path fill="#DCC1B1" d="M 1223.582031 359.148438 C 1223.582031 359.148438 1260.144531 369.210938 1273.601562 359.148438 L 1297.441406 467.367188 C 1297.441406 467.367188 1287.261719 483.976562 1246.503906 481.707031 C 1205.75 479.4375 1200.59375 460.265625 1200.59375 460.265625 L 1223.582031 359.148438"/><path fill="#DCC1B1" d="M 1262.492188 515.5625 C 1262.492188 515.5625 1270.433594 519.203125 1275.652344 514.507812 L 1277.761719 615.394531 L 1297.441406 608.757812 C 1297.441406 608.757812 1305.445312 609.910156 1289.289062 618.457031 C 1273.128906 627.003906 1273.625 624.394531 1273.625 624.394531 L 1262.492188 515.5625"/><path fill="#DCC1B1" d="M 1225.261719 516.410156 C 1225.261719 516.410156 1235.21875 519.453125 1240.371094 515.304688 C 1240.371094 515.304688 1237.019531 595.75 1232.816406 613.09375 C 1232.816406 613.09375 1253.925781 609.84375 1254.089844 611.65625 C 1254.253906 613.464844 1251.773438 616.8125 1241.382812 620.464844 C 1230.996094 624.121094 1225.792969 625.664062 1225.792969 625.664062 C 1225.792969 625.664062 1225.621094 524.40625 1225.261719 516.410156"/><g clip-path="url(#d)"><path fill="#DCC1B1" d="M 1353.0625 228.65625 C 1352.410156 226.441406 1351.757812 224.222656 1351.101562 222.007812 C 1350.609375 220.332031 1353.21875 219.621094 1353.710938 221.289062 C 1354.363281 223.503906 1355.015625 225.71875 1355.671875 227.9375 C 1356.167969 229.609375 1353.554688 230.316406 1353.0625 228.65625 Z M 1344.835938 192.507812 C 1343.042969 185.636719 1341.246094 178.761719 1339.445312 171.890625 C 1339.007812 170.203125 1341.613281 169.488281 1342.054688 171.167969 C 1343.851562 178.046875 1345.648438 184.917969 1347.441406 191.792969 C 1347.886719 193.480469 1345.277344 194.191406 1344.835938 192.507812 Z M 1364.054688 129.507812 L 1339.117188 165.273438 L 1323.449219 164.371094 L 1331.519531 193.523438 C 1331.320312 204.738281 1337.21875 205.824219 1337.21875 205.824219 C 1349.890625 199.148438 1357.542969 185.980469 1357.542969 185.980469 C 1365.246094 208.519531 1348.433594 220.558594 1348.433594 220.558594 L 1346.066406 233.632812 C 1346.066406 233.640625 1355.5625 232.074219 1355.5625 232.074219 L 1378.574219 195.640625 L 1364.054688 129.507812"/></g><path fill="#100F0D" d="M 1347.882812 218.753906 C 1347.679688 218.84375 1347.511719 219 1347.394531 219.222656 C 1347.164062 219.496094 1347.097656 219.800781 1347.148438 220.089844 C 1346.257812 225.199219 1345.308594 230.300781 1344.339844 235.398438 C 1340.324219 236.992188 1334.671875 235.4375 1331.941406 232.082031 C 1333.449219 226.757812 1335.019531 221.453125 1336.738281 216.1875 C 1336.921875 215.632812 1336.742188 215.179688 1336.402344 214.894531 C 1336.398438 214.886719 1336.398438 214.882812 1336.390625 214.875 C 1332.179688 210.472656 1330.253906 204.589844 1330.941406 198.785156 C 1331.894531 201.871094 1333.695312 204.644531 1336.265625 206.78125 C 1336.359375 206.859375 1336.460938 206.917969 1336.558594 206.96875 C 1336.925781 207.207031 1337.40625 207.273438 1337.898438 206.992188 C 1345.46875 202.691406 1352.765625 197.085938 1357.214844 189.511719 C 1359.964844 200.308594 1356.527344 211.324219 1347.882812 218.753906 Z M 1339.9375 258.527344 C 1337.929688 269.394531 1337.507812 283.980469 1327.878906 291.222656 C 1308.820312 292.382812 1290.066406 290.976562 1271.824219 285.136719 C 1271.25 278.226562 1271.148438 271.261719 1271.199219 264.261719 C 1286.519531 269.546875 1302.511719 271.558594 1318.40625 274.476562 C 1318.65625 274.527344 1318.882812 274.503906 1319.089844 274.4375 C 1319.511719 274.34375 1319.898438 274.058594 1320.066406 273.535156 C 1324.214844 260.84375 1327.519531 247.90625 1331.109375 235.050781 C 1334.453125 238.046875 1339.410156 239.339844 1343.78125 238.347656 C 1342.496094 245.070312 1341.1875 251.792969 1339.9375 258.527344 Z M 1356.378906 185.296875 C 1352.535156 193.660156 1345.207031 199.605469 1337.402344 204.15625 C 1334.453125 201.359375 1332.832031 197.660156 1332.875 193.523438 C 1332.875 193.210938 1332.769531 192.976562 1332.628906 192.777344 C 1333.265625 191.230469 1330.992188 189.910156 1330.277344 191.472656 C 1326.453125 199.835938 1327.835938 209.316406 1333.921875 216.152344 C 1332.25 221.304688 1330.714844 226.492188 1329.242188 231.699219 C 1329.097656 231.90625 1329.023438 232.144531 1329.042969 232.410156 C 1325.355469 245.5 1322.007812 258.691406 1317.828125 271.640625 C 1302.125 268.800781 1286.34375 266.734375 1271.226562 261.414062 C 1271.238281 260.152344 1271.261719 258.886719 1271.277344 257.621094 C 1271.539062 240.632812 1271.890625 223.113281 1266.660156 206.742188 C 1262.832031 194.746094 1254.476562 182.773438 1240.878906 183.511719 C 1240.75 183.464844 1240.625 183.417969 1240.46875 183.414062 C 1222.75 182.609375 1213.464844 200.167969 1211.683594 215.460938 C 1210.320312 227.132812 1211.042969 238.980469 1210.015625 250.695312 C 1208.957031 262.777344 1206.921875 274.777344 1203.730469 286.480469 C 1199.226562 303.03125 1188.054688 324.136719 1200.476562 340.027344 C 1205.230469 346.109375 1213.828125 348.523438 1220.652344 346.257812 C 1221.113281 350.683594 1221.609375 355.109375 1222.28125 359.511719 C 1222.546875 361.222656 1225.148438 360.496094 1224.890625 358.789062 C 1224.195312 354.253906 1223.707031 349.683594 1223.230469 345.121094 C 1224.597656 344.355469 1225.839844 343.359375 1226.914062 342.125 C 1227.613281 345.71875 1229.746094 349.191406 1232.855469 350.691406 C 1237.566406 352.957031 1242.960938 349.953125 1245.066406 345.566406 C 1251.375 352.308594 1260.222656 354.402344 1267.863281 347.433594 C 1268.695312 346.671875 1269.414062 345.847656 1270.058594 344.996094 C 1270.207031 350.089844 1271.164062 355.054688 1272.449219 360.097656 C 1272.875 361.78125 1275.480469 361.070312 1275.054688 359.382812 C 1273.378906 352.773438 1272.269531 346.292969 1272.9375 339.464844 C 1272.949219 339.347656 1272.914062 339.257812 1272.902344 339.15625 C 1274.152344 334.4375 1273.339844 329.3125 1270.691406 324.984375 C 1272.542969 324.945312 1274.449219 324.355469 1275.890625 323.492188 C 1280.441406 320.765625 1278.578125 315.59375 1277.132812 311.496094 C 1274.425781 303.800781 1272.914062 295.96875 1272.09375 288.050781 C 1290.296875 293.71875 1309.015625 295.085938 1328.027344 293.914062 C 1328.335938 294.019531 1328.691406 293.976562 1329.050781 293.714844 C 1337.96875 287.1875 1339.507812 276.242188 1341.3125 266.050781 C 1343.992188 250.902344 1347.140625 235.839844 1349.777344 220.679688 C 1359.960938 211.945312 1363.53125 198.226562 1358.847656 185.621094 C 1358.488281 184.648438 1356.910156 184.140625 1356.378906 185.296875"/><g clip-path="url(#e)"><path fill="#100F0D" d="M 1364.425781 127.601562 C 1359.144531 127.789062 1353.867188 127.96875 1348.585938 128.15625 C 1348.300781 128.164062 1348.078125 128.261719 1347.890625 128.390625 C 1347.714844 128.488281 1347.554688 128.628906 1347.417969 128.824219 C 1339.511719 140.332031 1331.519531 151.757812 1322.546875 162.460938 C 1321.433594 163.785156 1323.335938 165.707031 1324.453125 164.371094 C 1333.410156 153.691406 1341.414062 142.308594 1349.308594 130.835938 C 1354.347656 130.65625 1359.390625 130.480469 1364.425781 130.300781 C 1366.160156 130.242188 1366.171875 127.539062 1364.425781 127.601562"/></g><path fill="#100F0D" d="M 1263.925781 516.699219 C 1263.054688 505.089844 1262.273438 493.472656 1261.613281 481.851562 C 1261.515625 480.117188 1258.808594 480.109375 1258.910156 481.851562 C 1259.566406 493.472656 1260.347656 505.089844 1261.226562 516.699219 C 1261.355469 518.417969 1264.058594 518.4375 1263.925781 516.699219"/><path fill="#100F0D" d="M 1277.007812 514.550781 C 1276.894531 503.09375 1276.785156 491.644531 1276.636719 480.191406 C 1276.617188 478.457031 1273.910156 478.453125 1273.9375 480.191406 C 1274.082031 491.644531 1274.195312 503.09375 1274.304688 514.550781 C 1274.320312 516.285156 1277.023438 516.289062 1277.007812 514.550781"/><g clip-path="url(#f)"><path fill="#100F0D" d="M 1304.269531 605.390625 C 1294.835938 607.433594 1285.75 610.960938 1277.085938 615.15625 C 1275.515625 615.917969 1276.886719 618.246094 1278.445312 617.492188 C 1284.292969 614.660156 1290.296875 612.179688 1296.515625 610.261719 C 1296.667969 610.210938 1296.835938 610.15625 1297.007812 610.101562 C 1297.023438 610.097656 1297.039062 610.097656 1297.054688 610.09375 C 1299.6875 609.976562 1299.34375 611.230469 1296.03125 613.859375 C 1294.886719 614.40625 1293.746094 614.945312 1292.597656 615.476562 C 1290.449219 616.457031 1288.289062 617.40625 1286.101562 618.300781 C 1282.070312 619.945312 1277.960938 621.386719 1273.804688 622.691406 C 1273.738281 622.710938 1273.679688 622.742188 1273.621094 622.765625 C 1273.128906 622.910156 1272.75 623.3125 1272.8125 623.992188 C 1273.015625 626.285156 1273.222656 628.574219 1273.402344 630.871094 C 1273.410156 630.984375 1273.457031 631.074219 1273.488281 631.179688 C 1273.574219 631.765625 1273.976562 632.273438 1274.757812 632.222656 C 1276.976562 632.070312 1279.75 630.382812 1281.753906 629.46875 C 1286.125 627.464844 1290.386719 625.238281 1294.523438 622.796875 C 1298.710938 620.332031 1302.773438 617.652344 1306.710938 614.804688 C 1308.636719 613.417969 1311.136719 611.992188 1311.753906 609.535156 C 1313.027344 604.429688 1307.601562 604.667969 1304.269531 605.390625"/></g><path fill="#100F0D" d="M 1226.585938 515.78125 C 1226.046875 503.246094 1225.308594 490.714844 1224.402344 478.199219 C 1224.277344 476.476562 1221.574219 476.464844 1221.699219 478.199219 C 1222.605469 490.714844 1223.347656 503.246094 1223.886719 515.78125 C 1223.960938 517.507812 1226.664062 517.523438 1226.585938 515.78125"/><path fill="#100F0D" d="M 1241.726562 515 C 1241.957031 503.65625 1241.972656 492.316406 1241.785156 480.96875 C 1241.753906 479.234375 1239.050781 479.226562 1239.078125 480.96875 C 1239.269531 492.316406 1239.257812 503.65625 1239.023438 515 C 1238.988281 516.742188 1241.6875 516.742188 1241.726562 515"/><g clip-path="url(#g)"><path fill="#100F0D" d="M 1262.835938 607.765625 C 1259.339844 606.109375 1252.277344 609.03125 1248.738281 609.449219 C 1243.773438 610.042969 1238.863281 610.585938 1233.96875 611.65625 C 1232.273438 612.023438 1232.988281 614.628906 1234.691406 614.261719 C 1239.335938 613.242188 1244.015625 612.710938 1248.738281 612.152344 C 1249.339844 612.082031 1250.027344 611.941406 1250.75 611.777344 C 1250.902344 611.832031 1251.066406 611.875 1251.257812 611.867188 C 1255.128906 611.75 1252.792969 614.375 1250.660156 615.410156 C 1247.941406 616.722656 1244.921875 617.632812 1242.089844 618.65625 C 1237.078125 620.46875 1232 622.082031 1226.875 623.542969 C 1226.152344 623.300781 1225.226562 623.652344 1225.058594 624.554688 C 1224.957031 624.8125 1224.941406 625.097656 1224.992188 625.371094 C 1224.945312 627.199219 1224.894531 629.03125 1224.839844 630.855469 C 1224.675781 631.4375 1224.875 632.144531 1225.441406 632.421875 C 1225.460938 632.429688 1225.480469 632.4375 1225.5 632.445312 C 1225.550781 632.46875 1225.597656 632.480469 1225.652344 632.5 C 1225.652344 632.503906 1225.652344 632.503906 1225.65625 632.503906 C 1225.96875 632.613281 1226.277344 632.609375 1226.546875 632.519531 C 1226.792969 632.449219 1227.011719 632.316406 1227.191406 632.121094 C 1228.296875 631.164062 1230.558594 630.628906 1231.847656 630.074219 C 1235.523438 628.5 1239.230469 626.972656 1242.921875 625.433594 C 1249.023438 622.886719 1256.515625 620.835938 1261.972656 617.109375 C 1265.023438 615.027344 1267.195312 609.828125 1262.835938 607.765625"/></g><path fill="#FFF" d="M 609.324219 604.046875 L 611.554688 609.742188 C 611.554688 609.742188 604.457031 619.378906 604.1875 624.613281 L 614.460938 624.3125 C 614.460938 624.3125 616.605469 633.210938 635.71875 629.300781 C 635.71875 629.300781 631.710938 627.511719 629.167969 624.988281 L 673.125 624.988281 L 691.050781 626.679688 L 709.113281 605.054688 L 722.925781 588.542969 C 722.925781 588.542969 721.652344 585.660156 719.640625 585.191406 C 717.632812 584.71875 706.101562 584.796875 706.101562 584.796875 L 675.707031 583.792969 C 675.707031 583.792969 673.660156 580.886719 669.910156 580.824219 C 666.160156 580.757812 657.925781 581.765625 657.925781 581.765625 L 648.886719 573.042969 L 645.34375 576.054688 L 652.1875 582.367188 C 652.1875 582.367188 644.085938 581.84375 639.710938 586.632812 C 635.335938 591.421875 631.230469 597.828125 631.230469 597.828125 L 625.160156 597.800781 C 625.160156 597.800781 622.289062 602.84375 617.378906 602.273438 C 617.378906 602.273438 615.691406 603.773438 609.324219 604.046875"/><path fill="#FFF" d="M 565.230469 600.199219 C 565.230469 600.199219 572.84375 611.214844 569.292969 621.734375 C 569.292969 621.734375 597.515625 622.84375 606.210938 603.609375 C 606.210938 603.609375 596.933594 601.328125 592.582031 589.390625 C 592.582031 589.390625 582.269531 588.070312 565.230469 600.199219"/><path fill="#FFF" d="M 602.980469 531.046875 C 602.980469 531.046875 610.878906 525.574219 611.945312 521.675781 C 611.945312 521.675781 594.746094 517.507812 579.367188 497.089844 C 579.367188 497.089844 550.140625 499.125 528.890625 525.265625 C 528.890625 525.265625 532.539062 544.65625 548.195312 552.78125 C 563.847656 560.90625 575.320312 559.582031 586.308594 554.886719 C 586.308594 554.886719 583.523438 544.25 582.179688 539.820312 C 580.835938 535.394531 576.917969 525.878906 584.0625 520.671875 C 591.207031 515.46875 598.90625 520.214844 602.980469 531.046875"/><path fill="#FFF" d="M 619.515625 514.546875 C 619.515625 514.546875 631.546875 520.625 645.984375 516.691406 L 654.15625 512.210938 C 654.15625 512.210938 661.035156 515.042969 658.5625 507.726562 C 658.792969 507.058594 668.070312 490.46875 667.292969 478.960938 C 667.292969 478.960938 651.453125 494.714844 631.285156 485.898438 C 631.285156 485.898438 629.003906 474.511719 620.128906 480.476562 C 611.253906 486.441406 610.636719 499.570312 622.121094 499.652344 C 622.121094 499.652344 618.074219 511.320312 619.515625 514.546875"/><path fill="#DCC1B1" d="M 528.859375 525.125 C 528.859375 525.125 533.324219 546.210938 549.914062 553.621094 C 566.503906 561.03125 576.480469 558.515625 586.308594 554.886719 C 586.308594 554.886719 582.324219 540.574219 581.535156 537.335938 C 580.75 534.097656 577.640625 522.527344 586.523438 519.535156 C 595.402344 516.539062 600.277344 524.136719 602.980469 531.046875 C 602.980469 531.046875 608.652344 527.429688 612.238281 521.863281 C 612.238281 521.863281 640.261719 551.644531 643.042969 554.894531 C 645.824219 558.140625 651.949219 565.285156 650.074219 574.191406 L 645.941406 577.761719 C 645.941406 577.761719 642.566406 582.535156 634.019531 577.351562 C 625.472656 572.167969 625.8125 565.21875 622.964844 560.476562 C 620.121094 555.738281 607.222656 542.027344 607.222656 542.027344 C 607.222656 542.027344 612.84375 555.910156 615.148438 561.519531 C 617.457031 567.128906 635.25 598.199219 617.480469 602.523438 L 609.78125 604.222656 C 609.78125 604.222656 599.214844 604.71875 592.582031 589.390625 C 592.582031 589.390625 579.355469 589.832031 565.855469 600.863281 C 565.855469 600.863281 572.988281 610.996094 569.292969 621.734375 C 569.292969 621.734375 546.988281 622.09375 533.730469 620.742188 C 520.476562 619.386719 512.339844 618.484375 512.339844 618.484375 C 512.339844 618.484375 515.136719 614.304688 513.246094 608.234375 C 513.246094 608.234375 525.847656 607.734375 528.285156 608.03125 C 528.285156 608.03125 521.421875 604.960938 517.199219 597.171875 C 512.976562 589.382812 510.816406 579.0625 511.164062 568.519531 C 511.507812 557.976562 515.015625 546.382812 520.570312 536.820312 C 526.128906 527.261719 528.859375 525.125 528.859375 525.125"/><path fill="#DCC1B1" d="M 501.007812 610.238281 L 511.359375 608.828125 C 511.359375 608.828125 512.578125 615.507812 510.1875 618.367188 L 500.058594 617.597656 C 500.058594 617.597656 503.191406 615.441406 501.007812 610.238281"/><path fill="#DCC1B1" d="M 606.050781 618.375 L 603.957031 623.871094 L 614.230469 624.3125 C 614.230469 624.3125 614.625 626.742188 615.941406 627.445312 L 597.320312 626.4375 C 597.320312 626.4375 603.898438 619.410156 606.050781 618.375"/><path fill="#DCC1B1" d="M 628.523438 624.3125 C 628.523438 624.3125 632.113281 628.214844 634.855469 628.625 L 692.179688 628.625 L 726.992188 587.664062 L 723.699219 587.398438 L 690.5 625.253906 L 628.523438 624.3125"/><path fill="#100F0D" d="M 565.5 601.226562 C 566.136719 600.847656 565.558594 599.847656 564.917969 600.230469 C 554.671875 606.367188 543.132812 612.292969 530.976562 608.449219 C 530.265625 608.226562 529.960938 609.339844 530.667969 609.5625 C 543.125 613.503906 554.988281 607.523438 565.5 601.226562"/><path fill="#100F0D" d="M 504.542969 596.40625 C 508.664062 597.253906 512.835938 597.527344 517.035156 597.316406 C 517.773438 597.28125 517.78125 596.125 517.035156 596.164062 C 516.9375 596.167969 516.839844 596.171875 516.742188 596.175781 C 515.984375 594.714844 514.011719 590.722656 513.429688 587.921875 C 513.734375 587.609375 513.609375 586.929688 513.039062 586.921875 C 509.054688 586.859375 504.96875 586.835938 501.199219 588.324219 C 499.410156 589.035156 496.890625 590.523438 497.429688 592.851562 C 498.050781 595.523438 502.503906 595.984375 504.542969 596.40625"/><g clip-path="url(#h)"><path fill="#100F0D" d="M 634.113281 627.40625 C 629.976562 625.640625 626.859375 621.828125 625.261719 617.628906 C 626.652344 617.570312 628.011719 617.332031 629.253906 616.625 C 630.140625 616.125 631.691406 615 631.820312 613.917969 C 631.988281 612.53125 630.488281 612.738281 629.625 612.902344 C 627.484375 613.3125 625.34375 613.742188 623.207031 614.167969 C 621.71875 610.183594 619.480469 606.519531 617.960938 602.554688 C 621.109375 602.367188 623.613281 600.609375 625.105469 598.105469 C 625.15625 598.121094 625.203125 598.140625 625.265625 598.140625 C 650.644531 598.230469 676.054688 597.570312 701.339844 600.101562 C 699.839844 600.746094 698.453125 601.742188 697.429688 602.957031 C 695.21875 605.578125 694.042969 608.96875 693.003906 612.1875 C 691.667969 616.3125 690.671875 620.554688 689.925781 624.824219 C 689.800781 625.550781 690.910156 625.863281 691.039062 625.128906 C 691.96875 619.796875 693.25 614.441406 695.210938 609.382812 C 696.308594 606.539062 697.769531 603.597656 700.347656 601.816406 C 703.261719 599.804688 707.984375 599.691406 709.554688 603.464844 C 709.613281 603.609375 709.710938 603.703125 709.820312 603.765625 C 709.832031 603.773438 709.84375 603.777344 709.851562 603.78125 C 709.867188 603.789062 709.882812 603.796875 709.902344 603.804688 C 710.144531 603.925781 710.441406 603.90625 710.585938 603.675781 C 710.6875 603.574219 710.738281 603.4375 710.699219 603.265625 C 711.246094 599.847656 711.894531 596.445312 713 593.15625 C 713.605469 591.363281 714.261719 589.453125 715.269531 587.84375 C 716.273438 586.234375 718.335938 584.578125 720.28125 585.972656 C 721.171875 586.613281 721.710938 587.71875 721.917969 588.765625 C 722.0625 589.496094 723.175781 589.1875 723.03125 588.460938 C 722.972656 588.167969 722.890625 587.890625 722.800781 587.625 C 723.804688 587.707031 724.804688 587.789062 725.808594 587.871094 C 714.476562 601.152344 703.222656 614.5 691.886719 627.78125 C 672.632812 628.625 653.375 627.164062 634.113281 627.40625 Z M 625.566406 629.125 C 625.546875 629.121094 625.539062 629.109375 625.519531 629.109375 C 623.304688 628.796875 621.226562 627.660156 619.675781 626.039062 C 618.46875 624.78125 618.066406 623.058594 617.335938 621.515625 C 617.015625 620.847656 616.023438 621.433594 616.339844 622.097656 C 617.230469 623.972656 617.675781 625.785156 619.25 627.230469 C 619.699219 627.640625 620.171875 628.019531 620.667969 628.363281 C 619.285156 628.066406 617.878906 627.664062 616.726562 626.992188 C 613.882812 625.332031 614.84375 622.222656 615.769531 619.742188 C 615.851562 619.527344 615.796875 619.347656 615.675781 619.226562 C 614.1875 616.074219 613.09375 612.765625 611.914062 609.492188 C 611.929688 609.355469 611.875 609.234375 611.785156 609.136719 C 611.1875 607.496094 610.558594 605.875 609.84375 604.28125 C 612.191406 604.273438 614.617188 603.613281 616.804688 602.742188 C 618.386719 606.925781 620.792969 610.761719 622.289062 614.980469 C 622.347656 615.148438 622.457031 615.253906 622.585938 615.316406 C 622.699219 615.382812 622.839844 615.414062 623 615.382812 C 623.820312 615.222656 629.730469 613.597656 630.082031 614.167969 C 630.4375 614.742188 628.441406 615.769531 627.929688 615.972656 C 626.792969 616.421875 625.648438 616.496094 624.445312 616.492188 C 624.300781 616.492188 624.195312 616.542969 624.105469 616.613281 C 623.914062 616.726562 623.792969 616.945312 623.886719 617.222656 C 625.480469 621.960938 628.882812 626.371094 633.488281 628.402344 C 633.574219 628.492188 633.695312 628.546875 633.847656 628.558594 C 633.949219 628.597656 634.042969 628.644531 634.144531 628.679688 C 633.394531 628.816406 632.648438 628.925781 631.898438 629.015625 C 627.433594 627.984375 622.300781 625.847656 621.109375 620.96875 C 620.933594 620.246094 619.820312 620.550781 619.996094 621.273438 C 621.015625 625.449219 624.621094 627.847656 628.488281 629.226562 C 627.515625 629.234375 626.539062 629.203125 625.566406 629.125 Z M 604.496094 623.746094 C 606.144531 619.027344 608.230469 614.707031 611.136719 610.679688 C 612.210938 613.6875 613.242188 616.710938 614.59375 619.609375 C 613.878906 621.535156 613.136719 623.839844 614.050781 625.820312 C 614.226562 626.195312 614.453125 626.515625 614.707031 626.804688 C 609.339844 626.464844 603.976562 626.089844 598.613281 625.679688 C 600.617188 623.703125 602.597656 621.65625 604.757812 619.84375 C 604.265625 621.019531 603.8125 622.214844 603.382812 623.4375 C 603.136719 624.140625 604.25 624.441406 604.496094 623.746094 Z M 591.058594 581.175781 C 589.660156 574.921875 589.179688 568.480469 588.179688 562.15625 C 587.046875 555 585.148438 548.152344 583.097656 541.21875 C 581.453125 535.648438 578.601562 528.207031 582.390625 522.859375 C 584.3125 520.152344 587.8125 518.722656 591.070312 519.097656 C 594.726562 519.519531 597.410156 522.046875 599.253906 525.070312 C 602.855469 530.972656 604.8125 537.746094 607.441406 544.105469 C 610.230469 550.851562 613.019531 557.601562 615.828125 564.34375 C 618.789062 571.449219 622.308594 578.402344 624.441406 585.820312 C 626.191406 591.929688 625.980469 601.671875 617.132812 601.417969 C 617.011719 601.414062 616.914062 601.449219 616.835938 601.5 C 614.621094 602.4375 612.03125 603.167969 609.613281 603.128906 C 609.507812 603.128906 609.417969 603.15625 609.339844 603.195312 C 609.324219 603.179688 609.308594 603.164062 609.285156 603.152344 C 609.183594 603.066406 609.0625 603.035156 608.9375 603.050781 C 598.144531 601.3125 593.226562 590.867188 591.058594 581.175781 Z M 648.867188 582.953125 C 650.105469 582.992188 651.328125 583.203125 652.566406 583.25 C 652.574219 583.25 652.578125 583.246094 652.585938 583.246094 C 653.234375 583.75 653.902344 584.242188 654.601562 584.707031 C 657.308594 586.507812 660.214844 589.101562 662.191406 591.691406 C 662.394531 591.957031 662.667969 592.042969 662.980469 591.894531 C 664.992188 590.960938 663.667969 587.703125 662.425781 585.984375 C 666.789062 585.371094 671.179688 585.015625 675.496094 584.097656 C 688.917969 585.304688 702.398438 584.808594 715.847656 585.390625 C 715.554688 585.625 715.265625 585.886719 714.996094 586.210938 C 713.3125 588.226562 712.40625 591.183594 711.628906 593.648438 C 710.808594 596.257812 710.265625 598.9375 709.804688 601.632812 C 708.507812 599.894531 706.597656 599.226562 704.605469 599.316406 C 704.546875 599.292969 704.488281 599.265625 704.417969 599.257812 C 680.347656 596.597656 656.160156 596.980469 631.988281 596.992188 C 635.875 590.546875 640.6875 583.515625 648.867188 582.953125 Z M 501.132812 616.835938 C 501.789062 615.933594 502.355469 614.957031 502.484375 613.835938 C 502.625 612.609375 502.207031 611.46875 501.660156 610.398438 C 504.648438 609.90625 507.644531 609.503906 510.652344 609.203125 C 511.304688 612.195312 511.199219 614.964844 509.828125 617.75 C 507.257812 617.480469 504.6875 617.210938 502.117188 616.9375 C 501.789062 616.90625 501.460938 616.871094 501.132812 616.835938 Z M 657.203125 506.46875 C 657.03125 506.699219 657.074219 506.925781 657.222656 507.085938 C 657.269531 507.148438 657.328125 507.207031 657.410156 507.257812 C 658.816406 508.097656 659.316406 510.039062 658.164062 511.332031 C 656.941406 512.703125 655.273438 511.773438 654.636719 510.355469 C 654.519531 510.097656 654.300781 510.023438 654.09375 510.070312 C 653.972656 510.074219 653.84375 510.125 653.730469 510.238281 C 645.191406 518.96875 632.367188 518.4375 621.625 514.632812 C 621.542969 509.484375 622.046875 504.347656 623.351562 499.332031 C 623.351562 499.320312 623.355469 499.308594 623.359375 499.296875 C 623.359375 499.292969 623.359375 499.285156 623.363281 499.277344 C 623.433594 499.003906 623.316406 498.789062 623.132812 498.667969 C 623.011719 498.574219 622.847656 498.523438 622.652344 498.570312 C 619.242188 499.351562 616.042969 497.433594 614.816406 494.199219 C 613.703125 491.253906 614.339844 488.050781 615.953125 485.414062 C 617.390625 483.074219 619.671875 480.890625 622.371094 480.136719 C 626.15625 479.082031 630.761719 481.554688 629.792969 485.9375 C 629.742188 486.183594 629.832031 486.378906 629.984375 486.503906 C 630.039062 486.5625 630.109375 486.613281 630.195312 486.648438 C 636.25 489.117188 643.539062 490.105469 650.011719 489.152344 C 655.863281 488.289062 662.710938 485.132812 666.582031 480.566406 C 666.695312 480.4375 666.800781 480.296875 666.910156 480.160156 C 665.535156 489.550781 662.988281 498.757812 657.203125 506.46875 Z M 727.523438 587.441406 C 727.523438 587.4375 727.523438 587.429688 727.523438 587.421875 C 727.523438 587.351562 727.515625 587.28125 727.492188 587.21875 C 727.492188 587.21875 727.492188 587.21875 727.492188 587.214844 C 727.46875 587.148438 727.433594 587.085938 727.390625 587.03125 C 727.386719 587.027344 727.382812 587.019531 727.378906 587.015625 C 727.246094 586.855469 727.046875 586.757812 726.851562 586.800781 C 725.308594 586.675781 723.765625 586.550781 722.226562 586.425781 C 721.285156 584.960938 719.757812 584.214844 718.195312 584.378906 C 718.140625 584.359375 718.089844 584.339844 718.023438 584.335938 C 703.925781 583.597656 689.785156 584.207031 675.710938 582.960938 C 675.636719 582.890625 675.558594 582.824219 675.472656 582.761719 C 670.457031 578.511719 663.90625 580.097656 657.902344 580.878906 C 655.484375 578.226562 652.890625 575.75 650.484375 573.089844 C 649.984375 572.535156 649.171875 573.351562 649.667969 573.902344 C 652.105469 576.601562 654.734375 579.105469 657.179688 581.796875 C 657.238281 581.945312 657.367188 582.054688 657.558594 582.066406 C 657.648438 582.085938 657.738281 582.074219 657.824219 582.046875 C 662.847656 581.390625 668.507812 579.953125 673.046875 582.472656 C 672.910156 582.582031 672.785156 582.726562 672.6875 582.914062 C 672.566406 583.136719 672.515625 583.328125 672.511719 583.484375 C 668.742188 584.109375 664.925781 584.441406 661.148438 585.007812 C 660.871094 585.046875 660.742188 585.234375 660.730469 585.4375 C 660.675781 585.613281 660.707031 585.808594 660.894531 585.972656 C 661.519531 586.519531 663.410156 589.441406 662.753906 590.570312 C 660.992188 588.40625 658.757812 586.476562 656.609375 584.742188 C 655.113281 583.53125 653.40625 582.65625 651.933594 581.398438 C 650.203125 579.917969 648.632812 578.25 646.976562 576.683594 C 646.4375 576.175781 645.621094 576.988281 646.160156 577.5 C 647.796875 579.046875 649.359375 580.558594 651.023438 581.976562 C 650.304688 581.902344 649.589844 581.820312 648.867188 581.796875 C 639.976562 582.410156 634.832031 590.007812 630.644531 596.996094 C 628.992188 596.996094 627.339844 596.992188 625.6875 596.988281 C 626.203125 595.820312 626.515625 594.539062 626.601562 593.210938 C 627.003906 586.703125 623.828125 580.0625 621.347656 574.246094 C 617.8125 565.949219 614.292969 557.648438 610.839844 549.316406 C 608.347656 543.296875 606.226562 537.03125 603.570312 531.058594 C 607.1875 528.464844 610.136719 526.011719 612.234375 522.046875 C 615.265625 522.96875 618.367188 523.691406 621.507812 524.226562 C 621.601562 524.253906 621.695312 524.257812 621.796875 524.238281 C 622.15625 524.179688 622.359375 523.8125 622.304688 523.507812 C 621.964844 520.972656 621.738281 518.417969 621.652344 515.867188 C 628.78125 518.332031 636.746094 519.324219 643.84375 517.339844 C 643.847656 517.339844 643.851562 517.34375 643.855469 517.34375 C 651.71875 518.902344 658.773438 517.03125 666.046875 514.019531 C 666.066406 514.011719 666.085938 514 666.105469 513.992188 C 666.328125 513.9375 666.503906 513.765625 666.472656 513.464844 C 665.617188 505.140625 665.617188 497.207031 666.410156 488.875 C 666.414062 488.855469 666.40625 488.839844 666.40625 488.820312 C 667.285156 485.238281 667.902344 481.574219 668.375 477.898438 C 672.167969 470.746094 671.109375 459.96875 663.121094 456.671875 C 661.753906 449.097656 655.757812 443.570312 649.351562 439.863281 C 641.886719 435.546875 633.269531 433.121094 624.636719 433.125 C 607.292969 433.128906 593.238281 443.925781 585.003906 458.65625 C 579.628906 468.261719 576.6875 478.976562 574.378906 489.675781 C 574.378906 489.683594 574.378906 489.6875 574.378906 489.695312 C 574.339844 489.824219 574.347656 489.96875 574.4375 490.121094 C 575.679688 492.265625 576.992188 494.363281 578.390625 496.40625 C 558.414062 500.101562 539.9375 510.421875 526.964844 526.179688 C 526.496094 526.75 527.308594 527.570312 527.78125 526.996094 C 540.734375 511.261719 559.148438 501.039062 579.113281 497.445312 C 583.222656 503.265625 588.027344 508.566406 593.769531 512.859375 C 599.050781 516.804688 604.925781 519.683594 611.121094 521.691406 C 609.144531 525.304688 606.429688 527.585938 603.089844 529.988281 C 602.703125 529.148438 602.308594 528.316406 601.894531 527.488281 C 599.3125 522.332031 595.285156 517.175781 588.847656 517.941406 C 583.273438 518.605469 579.738281 523.085938 579.433594 528.511719 C 579.246094 531.828125 580.167969 535.074219 581.042969 538.234375 C 582.214844 542.480469 583.597656 546.664062 584.722656 550.917969 C 586.945312 559.363281 587.773438 568.046875 589.058594 576.660156 C 590.625 587.199219 594.902344 599.886719 605.710938 603.453125 C 605.707031 603.460938 605.699219 603.46875 605.695312 603.476562 C 601.320312 612.207031 592.453125 617.027344 583.246094 619.136719 C 572.699219 621.554688 561.46875 621.550781 550.707031 621.199219 C 539.890625 620.84375 529.117188 619.773438 518.359375 618.644531 C 516.738281 618.476562 515.117188 618.304688 513.5 618.132812 C 514.90625 615.171875 515.273438 612.042969 514.183594 608.890625 C 518.613281 608.558594 523.054688 608.4375 527.515625 608.535156 C 528.257812 608.550781 528.257812 607.394531 527.515625 607.378906 C 527.410156 607.375 527.304688 607.378906 527.199219 607.375 C 526.128906 606.652344 524.195312 605.359375 523.367188 604.800781 C 523.578125 604.492188 523.535156 604.023438 523.070312 603.953125 C 512.652344 602.398438 501.234375 603.386719 491.664062 608.074219 C 489.226562 609.265625 485.917969 612.015625 488.09375 614.960938 C 489.136719 616.378906 491.078125 616.835938 492.707031 617.089844 C 495.0625 617.457031 497.464844 617.648438 499.851562 617.871094 C 499.960938 617.925781 500.082031 617.945312 500.203125 617.90625 C 500.671875 617.949219 501.140625 617.992188 501.609375 618.039062 C 526.75 620.683594 552.824219 624.859375 578.070312 621.253906 C 589.453125 619.628906 601.253906 614.90625 606.691406 604.058594 C 606.742188 603.957031 606.761719 603.855469 606.753906 603.761719 C 607.328125 603.914062 607.921875 604.042969 608.527344 604.144531 C 609.328125 605.851562 610.015625 607.605469 610.660156 609.375 C 608.699219 611.980469 607.101562 614.714844 605.753906 617.59375 C 605.75 617.59375 605.746094 617.597656 605.742188 617.597656 C 602.558594 619.964844 599.820312 622.914062 596.980469 625.664062 C 596.914062 625.707031 596.863281 625.761719 596.828125 625.832031 C 596.601562 626.128906 596.761719 626.492188 597.035156 626.648438 C 597.050781 626.660156 597.058594 626.667969 597.074219 626.675781 C 597.136719 626.703125 597.207031 626.726562 597.277344 626.730469 C 597.285156 626.734375 597.289062 626.738281 597.300781 626.738281 C 603.644531 627.230469 609.996094 627.675781 616.351562 628.070312 C 617.070312 628.449219 617.859375 628.726562 618.628906 628.96875 C 622.921875 630.292969 627.410156 630.65625 631.832031 630.179688 C 631.960938 630.203125 632.078125 630.191406 632.175781 630.144531 C 633.691406 629.96875 635.195312 629.695312 636.679688 629.324219 C 636.972656 629.25 637.09375 629.023438 637.085938 628.789062 C 637.097656 628.703125 637.09375 628.617188 637.066406 628.539062 C 655.402344 628.460938 673.734375 629.746094 692.0625 628.929688 C 692.230469 628.972656 692.417969 628.933594 692.570312 628.753906 C 704.183594 615.148438 715.710938 601.46875 727.328125 587.859375 C 727.417969 587.789062 727.476562 587.691406 727.503906 587.578125 C 727.515625 587.53125 727.523438 587.488281 727.523438 587.441406"/></g></svg>