<svg xmlns="http://www.w3.org/2000/svg" width="90" viewBox="0 0 90 112.5" height="112.5" version="1.0"><defs><clipPath id="a"><path d="M 0.199219 0 L 89.800781 0 L 89.800781 112.003906 L 0.199219 112.003906 Z M 0.199219 0"/></clipPath><clipPath id="b"><path d="M 39 37 L 59 37 L 59 111.988281 L 39 111.988281 Z M 39 37"/></clipPath><clipPath id="c"><path d="M 39.261719 36.632812 L 59.425781 36.632812 L 59.425781 111.746094 L 39.261719 111.746094 Z M 39.261719 36.632812"/></clipPath><clipPath id="d"><path d="M 58 16 L 85.847656 16 L 85.847656 111 L 58 111 Z M 58 16"/></clipPath><clipPath id="e"><path d="M 57.722656 16.265625 L 85.765625 16.265625 L 85.765625 110.742188 L 57.722656 110.742188 Z M 57.722656 16.265625"/></clipPath><clipPath id="f"><path d="M 79 79 L 85.847656 79 L 85.847656 95 L 79 95 Z M 79 79"/></clipPath><clipPath id="g"><path d="M 79 79.0625 L 85.765625 79.0625 L 85.765625 95.46875 L 79 95.46875 Z M 79 79.0625"/></clipPath><clipPath id="h"><path d="M 29 2.972656 L 64 2.972656 L 64 23 L 29 23 Z M 29 2.972656"/></clipPath><clipPath id="i"><path d="M 4.460938 36 L 18 36 L 18 111 L 4.460938 111 Z M 4.460938 36"/></clipPath><clipPath id="j"><path d="M 4.460938 7 L 43 7 L 43 38 L 4.460938 38 Z M 4.460938 7"/></clipPath></defs><g clip-path="url(#a)" fill="#FFF"><path d="M 0.199219 0 L 89.800781 0 L 89.800781 119.46875 L 0.199219 119.46875 Z M 0.199219 0"/><path d="M 0.199219 0 L 89.800781 0 L 89.800781 112.003906 L 0.199219 112.003906 Z M 0.199219 0"/><path d="M 0.199219 0 L 89.800781 0 L 89.800781 112.003906 L 0.199219 112.003906 Z M 0.199219 0"/></g><g clip-path="url(#b)"><path fill="#997466" d="M 58.292969 39.175781 C 58.621094 86.605469 58.789062 110.316406 58.789062 110.316406 C 50.53125 111.964844 44.1875 111.585938 39.761719 109.1875 C 39.761719 109.1875 39.761719 85.140625 39.761719 37.054688 C 44.160156 38.625 50.339844 39.332031 58.292969 39.175781" fill-rule="evenodd"/></g><g clip-path="url(#c)"><path fill="#333" d="M 58.359375 109.96875 L 57.871094 39.609375 C 54.042969 39.667969 50.636719 39.527344 47.644531 39.183594 C 44.789062 38.859375 42.300781 38.34375 40.183594 37.648438 L 40.183594 108.933594 C 42.300781 110.03125 44.859375 110.667969 47.863281 110.847656 C 50.90625 111.03125 54.40625 110.734375 58.359375 109.96875 Z M 58.714844 39.179688 L 59.210938 110.316406 C 59.214844 110.519531 59.066406 110.695312 58.871094 110.734375 C 54.707031 111.566406 51.023438 111.882812 47.8125 111.691406 C 44.578125 111.5 41.828125 110.789062 39.558594 109.558594 C 39.414062 109.476562 39.332031 109.328125 39.335938 109.175781 L 39.335938 37.054688 C 39.335938 36.824219 39.527344 36.632812 39.761719 36.632812 C 39.8125 36.632812 39.867188 36.644531 39.914062 36.660156 C 42.078125 37.433594 44.6875 37.992188 47.742188 38.34375 C 50.816406 38.695312 54.328125 38.832031 58.28125 38.753906 C 58.519531 38.75 58.710938 38.9375 58.714844 39.167969 L 58.714844 39.179688" fill-rule="evenodd"/></g><g clip-path="url(#d)"><path fill="#997466" d="M 58.789062 110.316406 C 58.789062 110.316406 67.640625 103.71875 85.339844 90.515625 C 85.339844 90.515625 84.679688 65.90625 83.355469 16.6875 C 83.355469 16.6875 75 24.183594 58.292969 39.175781 C 58.621094 86.605469 58.789062 110.316406 58.789062 110.316406" fill-rule="evenodd"/></g><g clip-path="url(#e)"><path fill="#333" d="M 85.597656 90.855469 L 59.046875 110.652344 C 58.976562 110.707031 58.886719 110.738281 58.789062 110.738281 C 58.554688 110.742188 58.363281 110.550781 58.363281 110.320312 L 57.867188 39.207031 C 57.859375 39.082031 57.90625 38.953125 58.007812 38.863281 L 83.070312 16.375 C 83.140625 16.308594 83.238281 16.269531 83.34375 16.265625 C 83.578125 16.261719 83.773438 16.445312 83.777344 16.679688 L 85.765625 90.507812 C 85.769531 90.640625 85.710938 90.769531 85.597656 90.855469 Z M 59.207031 109.476562 L 84.910156 90.308594 L 82.953125 17.617188 L 58.714844 39.367188 L 59.207031 109.476562" fill-rule="evenodd"/></g><path fill="#CB8A6E" d="M 83.660156 28.128906 L 83.355469 16.6875 L 75.777344 23.488281 C 78.042969 26.152344 80.671875 27.699219 83.660156 28.128906" fill-rule="evenodd"/><path fill="#333" d="M 83.777344 16.679688 L 84.085938 28.09375 C 84.089844 28.125 84.085938 28.15625 84.082031 28.1875 C 84.050781 28.421875 83.835938 28.582031 83.601562 28.546875 C 82.050781 28.328125 80.59375 27.8125 79.234375 27.011719 C 77.882812 26.214844 76.625 25.136719 75.464844 23.773438 L 75.460938 23.769531 C 75.304688 23.597656 75.316406 23.328125 75.492188 23.171875 L 83.070312 16.375 C 83.140625 16.308594 83.238281 16.269531 83.34375 16.265625 C 83.578125 16.261719 83.773438 16.445312 83.777344 16.679688 Z M 83.222656 27.628906 L 82.953125 17.617188 L 76.371094 23.523438 C 77.398438 24.675781 78.496094 25.59375 79.664062 26.28125 C 80.785156 26.941406 81.96875 27.390625 83.222656 27.628906" fill-rule="evenodd"/><g clip-path="url(#f)"><path fill="#CB8A6E" d="M 79.445312 94.914062 L 85.339844 90.515625 L 85.050781 79.761719 C 81.203125 83.367188 79.332031 88.417969 79.445312 94.914062" fill-rule="evenodd"/></g><g clip-path="url(#g)"><path fill="#333" d="M 85.597656 90.855469 L 79.707031 95.246094 C 79.636719 95.300781 79.546875 95.335938 79.453125 95.335938 C 79.21875 95.339844 79.023438 95.152344 79.023438 94.917969 C 78.964844 91.617188 79.414062 88.679688 80.363281 86.109375 C 81.320312 83.519531 82.785156 81.300781 84.761719 79.453125 C 84.835938 79.382812 84.933594 79.339844 85.042969 79.339844 C 85.277344 79.332031 85.46875 79.519531 85.476562 79.75 L 85.765625 90.507812 C 85.769531 90.640625 85.710938 90.769531 85.597656 90.855469 Z M 79.867188 94.070312 L 84.910156 90.308594 L 84.652344 80.753906 C 83.121094 82.367188 81.957031 84.25 81.164062 86.398438 C 80.328125 88.660156 79.894531 91.21875 79.867188 94.070312" fill-rule="evenodd"/></g><path fill="#FFF" d="M 39.761719 37.054688 C 55.996094 23.101562 64.113281 16.125 64.113281 16.125 C 76.941406 16.5 83.355469 16.6875 83.355469 16.6875 C 83.355469 16.6875 75 24.183594 58.292969 39.175781 C 50.339844 39.332031 44.160156 38.625 39.761719 37.054688" fill-rule="evenodd"/><path fill="#333" d="M 64.265625 16.550781 L 40.597656 36.894531 C 42.621094 37.546875 45.003906 38.03125 47.742188 38.34375 C 50.773438 38.691406 54.234375 38.828125 58.121094 38.757812 L 82.28125 17.082031 Z M 39.484375 36.734375 L 63.835938 15.804688 C 63.921875 15.730469 64.03125 15.695312 64.136719 15.703125 L 83.363281 16.265625 C 83.597656 16.273438 83.785156 16.46875 83.777344 16.703125 C 83.773438 16.820312 83.722656 16.929688 83.636719 17.003906 L 58.574219 39.492188 C 58.488281 39.570312 58.378906 39.605469 58.269531 39.601562 C 54.285156 39.675781 50.742188 39.539062 47.644531 39.183594 C 44.527344 38.828125 41.851562 38.25 39.617188 37.453125 C 39.398438 37.375 39.28125 37.132812 39.363281 36.914062 C 39.386719 36.84375 39.429688 36.78125 39.484375 36.734375" fill-rule="evenodd"/><path fill="#CB8A6E" d="M 29.820312 20.648438 C 30.53125 79.484375 30.886719 108.902344 30.886719 108.902344 C 34.441406 110.214844 37.398438 110.3125 39.761719 109.1875 C 39.761719 61.097656 39.761719 37.054688 39.761719 37.054688 C 39.761719 26.777344 39.761719 21.640625 39.761719 21.640625 C 36.785156 22.308594 33.472656 21.980469 29.820312 20.648438" fill-rule="evenodd"/><path fill="#333" d="M 30.460938 108.910156 L 29.394531 20.675781 C 29.390625 20.621094 29.398438 20.5625 29.421875 20.503906 C 29.5 20.285156 29.742188 20.171875 29.964844 20.253906 C 31.757812 20.90625 33.464844 21.3125 35.085938 21.472656 C 36.695312 21.632812 38.222656 21.550781 39.667969 21.226562 C 39.695312 21.21875 39.726562 21.21875 39.761719 21.21875 C 39.992188 21.21875 40.183594 21.40625 40.183594 21.640625 L 40.183594 109.1875 C 40.183594 109.34375 40.097656 109.496094 39.941406 109.566406 C 38.699219 110.160156 37.304688 110.429688 35.757812 110.382812 C 34.230469 110.332031 32.554688 109.972656 30.738281 109.300781 C 30.578125 109.242188 30.460938 109.089844 30.460938 108.910156 Z M 30.25 21.25 L 31.304688 108.605469 C 32.9375 109.183594 34.429688 109.492188 35.785156 109.535156 C 37.09375 109.578125 38.277344 109.371094 39.335938 108.914062 L 39.335938 22.160156 C 37.957031 22.414062 36.515625 22.464844 35.003906 22.316406 C 33.484375 22.164062 31.902344 21.808594 30.25 21.25" fill-rule="evenodd"/><path fill="#CB8A6E" d="M 39.761719 37.054688 C 55.996094 23.101562 64.113281 16.125 64.113281 16.125 C 64.113281 16.125 63.851562 12.257812 63.332031 4.527344 C 63.332031 4.527344 55.472656 10.230469 39.761719 21.640625 C 39.761719 31.917969 39.761719 37.054688 39.761719 37.054688" fill-rule="evenodd"/><path fill="#333" d="M 64.390625 16.445312 L 40.039062 37.375 C 39.964844 37.441406 39.867188 37.480469 39.761719 37.480469 C 39.527344 37.480469 39.335938 37.289062 39.335938 37.054688 L 39.335938 21.640625 C 39.335938 21.511719 39.394531 21.378906 39.511719 21.296875 L 63.054688 4.203125 C 63.121094 4.148438 63.207031 4.109375 63.300781 4.105469 C 63.535156 4.089844 63.738281 4.265625 63.753906 4.5 L 64.535156 16.097656 C 64.542969 16.222656 64.496094 16.351562 64.390625 16.445312 Z M 40.183594 36.132812 L 63.675781 15.941406 L 62.957031 5.320312 L 40.183594 21.855469 L 40.183594 36.132812" fill-rule="evenodd"/><path fill="#FFF" d="M 29.820312 20.648438 C 45.914062 9.148438 53.960938 3.394531 53.960938 3.394531 C 60.207031 4.148438 63.332031 4.527344 63.332031 4.527344 C 63.332031 4.527344 55.472656 10.230469 39.761719 21.640625 C 36.785156 22.308594 33.472656 21.980469 29.820312 20.648438" fill-rule="evenodd"/><g clip-path="url(#h)"><path fill="#333" d="M 54.070312 3.835938 L 30.730469 20.519531 C 32.246094 21.015625 33.699219 21.335938 35.085938 21.472656 C 36.664062 21.628906 38.164062 21.554688 39.582031 21.246094 L 62.210938 4.820312 Z M 29.585938 20.296875 L 53.710938 3.050781 C 53.800781 2.988281 53.90625 2.964844 54.007812 2.976562 L 63.382812 4.105469 C 63.613281 4.132812 63.78125 4.34375 63.753906 4.578125 C 63.738281 4.710938 63.660156 4.824219 63.550781 4.890625 L 40.007812 21.980469 C 39.960938 22.015625 39.90625 22.039062 39.851562 22.050781 C 38.320312 22.398438 36.703125 22.484375 35.003906 22.316406 C 33.308594 22.148438 31.535156 21.722656 29.675781 21.046875 C 29.453125 20.96875 29.339844 20.726562 29.421875 20.503906 C 29.453125 20.417969 29.511719 20.34375 29.585938 20.296875" fill-rule="evenodd"/></g><path fill="#997466" d="M 29.925781 29.277344 C 30.5625 82.359375 30.886719 108.902344 30.886719 108.902344 C 26.433594 111.015625 21.910156 110.78125 17.324219 108.195312 C 17.324219 108.195312 17.300781 81.535156 17.253906 28.214844 C 20.707031 29.433594 24.929688 29.789062 29.925781 29.277344" fill-rule="evenodd"/><path fill="#333" d="M 30.457031 108.632812 L 29.503906 29.742188 C 27.15625 29.960938 24.980469 29.984375 22.976562 29.816406 C 21.058594 29.65625 19.289062 29.320312 17.675781 28.804688 L 17.746094 107.945312 C 19.910156 109.132812 22.054688 109.777344 24.175781 109.890625 C 26.28125 110 28.375 109.578125 30.457031 108.632812 Z M 30.347656 29.292969 L 31.308594 108.898438 C 31.3125 109.070312 31.210938 109.214844 31.066406 109.285156 C 28.777344 110.375 26.464844 110.855469 24.132812 110.734375 C 21.804688 110.613281 19.464844 109.890625 17.113281 108.566406 C 16.96875 108.484375 16.890625 108.332031 16.898438 108.175781 L 16.828125 28.214844 C 16.828125 27.984375 17.019531 27.792969 17.253906 27.792969 C 17.300781 27.792969 17.351562 27.800781 17.394531 27.816406 C 19.085938 28.414062 20.972656 28.796875 23.046875 28.972656 C 25.136719 29.144531 27.414062 29.109375 29.882812 28.855469 C 30.113281 28.832031 30.324219 29 30.347656 29.234375 C 30.347656 29.253906 30.347656 29.273438 30.347656 29.292969" fill-rule="evenodd"/><path fill="#DCC1B1" d="M 30.765625 98.867188 L 30.886719 108.902344 C 26.433594 111.015625 21.910156 110.78125 17.324219 108.195312 L 17.3125 97.914062 C 21.296875 99.679688 25.78125 99.996094 30.765625 98.867188" fill-rule="evenodd"/><path fill="#333" d="M 30.457031 108.632812 L 30.347656 99.390625 C 28 99.882812 25.761719 100.050781 23.632812 99.898438 C 21.566406 99.753906 19.601562 99.304688 17.738281 98.554688 L 17.746094 107.945312 C 19.910156 109.132812 22.054688 109.777344 24.175781 109.890625 C 26.28125 110 28.375 109.578125 30.457031 108.632812 Z M 31.1875 98.878906 L 31.308594 108.898438 C 31.3125 109.070312 31.210938 109.214844 31.066406 109.285156 C 28.777344 110.375 26.464844 110.855469 24.132812 110.734375 C 21.804688 110.613281 19.464844 109.890625 17.113281 108.566406 C 16.96875 108.484375 16.890625 108.332031 16.898438 108.175781 L 16.890625 97.914062 C 16.890625 97.679688 17.082031 97.492188 17.3125 97.492188 C 17.375 97.492188 17.433594 97.503906 17.488281 97.527344 C 19.429688 98.390625 21.5 98.898438 23.691406 99.054688 C 25.894531 99.210938 28.21875 99.011719 30.671875 98.453125 C 30.898438 98.402344 31.125 98.546875 31.179688 98.773438 C 31.1875 98.808594 31.191406 98.84375 31.1875 98.878906" fill-rule="evenodd"/><path fill="#DCC1B1" d="M 29.925781 29.277344 L 30.082031 42.480469 C 26.136719 43.367188 21.867188 43.1875 17.265625 41.929688 L 17.253906 28.214844 C 20.707031 29.433594 24.929688 29.789062 29.925781 29.277344" fill-rule="evenodd"/><path fill="#333" d="M 29.65625 42.140625 L 29.503906 29.742188 C 27.15625 29.960938 24.980469 29.984375 22.976562 29.816406 C 21.058594 29.65625 19.289062 29.320312 17.675781 28.804688 L 17.6875 41.605469 C 19.847656 42.171875 21.929688 42.5 23.9375 42.585938 C 25.917969 42.671875 27.820312 42.523438 29.65625 42.140625 Z M 30.347656 29.292969 L 30.507812 42.476562 C 30.511719 42.679688 30.367188 42.851562 30.175781 42.894531 C 28.167969 43.347656 26.074219 43.527344 23.902344 43.433594 C 21.734375 43.339844 19.484375 42.972656 17.152344 42.335938 C 16.964844 42.285156 16.839844 42.117188 16.839844 41.929688 L 16.828125 28.214844 C 16.828125 27.984375 17.019531 27.792969 17.253906 27.792969 C 17.300781 27.792969 17.351562 27.800781 17.394531 27.816406 C 19.085938 28.414062 20.972656 28.796875 23.046875 28.972656 C 25.136719 29.144531 27.414062 29.109375 29.882812 28.855469 C 30.113281 28.832031 30.324219 29 30.347656 29.234375 C 30.347656 29.253906 30.347656 29.273438 30.347656 29.292969" fill-rule="evenodd"/><path fill="#997466" d="M 29.925781 29.277344 C 25.078125 29.800781 20.855469 29.449219 17.253906 28.214844 C 37.273438 12.140625 47.285156 4.101562 47.285156 4.101562 L 52.308594 4.574219 L 29.820312 20.648438 L 29.925781 29.277344" fill-rule="evenodd"/><path fill="#333" d="M 23.15625 28.984375 C 25.132812 29.148438 27.246094 29.117188 29.496094 28.894531 L 29.394531 20.664062 C 29.390625 20.527344 29.453125 20.394531 29.570312 20.308594 L 51.140625 4.890625 L 47.417969 4.539062 L 18.132812 28.054688 C 19.691406 28.523438 21.367188 28.832031 23.15625 28.984375 Z M 29.96875 29.695312 C 27.515625 29.960938 25.222656 30.007812 23.085938 29.828125 C 20.941406 29.648438 18.949219 29.246094 17.113281 28.617188 C 16.890625 28.542969 16.773438 28.300781 16.847656 28.078125 C 16.878906 27.992188 16.9375 27.917969 17.007812 27.871094 L 47.019531 3.773438 C 47.113281 3.699219 47.230469 3.667969 47.339844 3.683594 L 52.347656 4.152344 C 52.582031 4.175781 52.753906 4.382812 52.730469 4.613281 C 52.71875 4.742188 52.652344 4.851562 52.550781 4.921875 L 30.246094 20.863281 L 30.347656 29.269531 C 30.351562 29.492188 30.183594 29.671875 29.96875 29.695312" fill-rule="evenodd"/><path fill="#CB8A6E" d="M 17.261719 36.621094 C 17.300781 84.335938 17.324219 108.195312 17.324219 108.195312 C 13.332031 110.175781 9.257812 110.078125 5.113281 107.914062 C 5.0625 60.390625 5.039062 36.632812 5.039062 36.632812 C 8.917969 37.578125 12.992188 37.574219 17.261719 36.621094" fill-rule="evenodd"/><g clip-path="url(#i)"><path fill="#333" d="M 16.898438 107.929688 L 16.835938 37.144531 C 14.851562 37.554688 12.90625 37.761719 11.003906 37.761719 C 9.117188 37.765625 7.269531 37.566406 5.464844 37.164062 L 5.535156 107.65625 C 7.472656 108.632812 9.390625 109.140625 11.285156 109.1875 C 13.167969 109.230469 15.042969 108.8125 16.898438 107.929688 Z M 17.683594 36.640625 L 17.75 108.195312 C 17.75 108.363281 17.652344 108.507812 17.511719 108.574219 C 15.453125 109.59375 13.371094 110.082031 11.265625 110.03125 C 9.164062 109.984375 7.046875 109.402344 4.914062 108.289062 C 4.769531 108.210938 4.6875 108.066406 4.6875 107.914062 L 4.617188 36.632812 C 4.617188 36.398438 4.804688 36.210938 5.039062 36.210938 C 5.074219 36.210938 5.105469 36.214844 5.140625 36.222656 C 7.046875 36.6875 9.003906 36.917969 11.003906 36.917969 C 13.007812 36.914062 15.0625 36.679688 17.167969 36.207031 C 17.394531 36.15625 17.621094 36.300781 17.671875 36.527344 C 17.683594 36.566406 17.6875 36.601562 17.683594 36.640625" fill-rule="evenodd"/></g><path fill="#997466" d="M 18.261719 28.542969 C 17.917969 28.441406 17.582031 28.332031 17.253906 28.214844 L 41.710938 8.578125 L 39.261719 8.132812 L 5.039062 36.632812 C 8.917969 37.578125 12.992188 37.574219 17.261719 36.621094 L 17.253906 28.214844 C 17.585938 28.328125 17.921875 28.4375 18.265625 28.535156 L 18.261719 28.542969" fill-rule="evenodd"/><g clip-path="url(#j)"><path fill="#333" d="M 16.828125 28.246094 C 16.824219 28.1875 16.832031 28.132812 16.851562 28.074219 C 16.878906 27.992188 16.933594 27.925781 17 27.875 L 40.722656 8.828125 L 39.382812 8.585938 L 5.972656 36.40625 C 7.613281 36.75 9.292969 36.917969 11.003906 36.917969 C 12.902344 36.914062 14.847656 36.703125 16.835938 36.28125 Z M 18.144531 28.949219 C 17.988281 28.902344 17.835938 28.855469 17.675781 28.804688 L 17.683594 36.601562 C 17.695312 36.800781 17.558594 36.988281 17.351562 37.035156 C 15.191406 37.515625 13.074219 37.761719 11.003906 37.761719 C 8.941406 37.765625 6.925781 37.523438 4.964844 37.046875 C 4.867188 37.03125 4.78125 36.984375 4.714844 36.902344 C 4.5625 36.722656 4.585938 36.457031 4.765625 36.308594 L 38.988281 7.808594 C 39.082031 7.730469 39.207031 7.695312 39.335938 7.71875 L 41.769531 8.15625 C 41.871094 8.171875 41.972656 8.222656 42.042969 8.3125 C 42.191406 8.492188 42.160156 8.761719 41.976562 8.90625 L 18.132812 28.054688 L 18.382812 28.128906 C 18.609375 28.195312 18.738281 28.429688 18.671875 28.652344 L 18.664062 28.6875 C 18.585938 28.898438 18.355469 29.011719 18.144531 28.949219" fill-rule="evenodd"/></g><path fill="#DCC1B1" d="M 14.625 40.273438 C 14.625 84.257812 14.625 106.25 14.625 106.25 C 11.984375 107.152344 9.523438 107.011719 7.238281 105.828125 C 7.238281 105.828125 7.382812 83.976562 7.664062 40.273438 C 9.84375 40.746094 12.160156 40.746094 14.625 40.273438" fill-rule="evenodd"/><path fill="#333" d="M 14.199219 105.945312 L 14.199219 40.78125 C 12.054688 41.136719 10.019531 41.140625 8.085938 40.789062 L 7.664062 105.566406 C 9.695312 106.546875 11.871094 106.675781 14.199219 105.945312 Z M 15.046875 40.300781 L 15.046875 106.25 C 15.046875 106.4375 14.929688 106.59375 14.761719 106.652344 C 12.007812 107.59375 9.433594 107.445312 7.042969 106.203125 C 6.886719 106.121094 6.800781 105.957031 6.816406 105.789062 L 7.242188 40.273438 C 7.242188 40.039062 7.433594 39.851562 7.667969 39.851562 C 7.699219 39.851562 7.726562 39.855469 7.753906 39.859375 C 9.875 40.320312 12.136719 40.316406 14.542969 39.859375 C 14.773438 39.8125 14.996094 39.964844 15.042969 40.195312 C 15.046875 40.230469 15.050781 40.265625 15.046875 40.300781" fill-rule="evenodd"/><path fill="#DCC1B1" d="M 54.097656 49.46875 C 54.191406 66.816406 54.238281 75.492188 54.238281 75.492188 C 49.433594 76.386719 45.8125 76.148438 43.375 74.785156 C 43.375 74.785156 43.425781 65.96875 43.519531 48.335938 C 47.097656 49.082031 50.625 49.457031 54.097656 49.46875" fill-rule="evenodd"/><path fill="#333" d="M 53.8125 75.136719 L 53.675781 49.886719 C 52.058594 49.867188 50.433594 49.773438 48.800781 49.597656 C 47.191406 49.425781 45.570312 49.175781 43.941406 48.851562 L 43.800781 74.53125 C 44.925781 75.113281 46.308594 75.457031 47.945312 75.5625 C 49.636719 75.671875 51.589844 75.53125 53.8125 75.136719 Z M 54.523438 49.464844 L 54.664062 75.488281 C 54.664062 75.695312 54.515625 75.871094 54.316406 75.90625 C 51.878906 76.359375 49.738281 76.527344 47.894531 76.40625 C 46.015625 76.285156 44.441406 75.867188 43.167969 75.152344 C 43.019531 75.070312 42.941406 74.910156 42.953125 74.75 L 43.09375 48.332031 C 43.09375 48.101562 43.285156 47.914062 43.519531 47.914062 C 43.550781 47.914062 43.578125 47.914062 43.605469 47.921875 C 45.378906 48.289062 47.140625 48.570312 48.890625 48.753906 C 50.644531 48.945312 52.378906 49.039062 54.097656 49.042969 C 54.332031 49.042969 54.519531 49.234375 54.523438 49.464844" fill-rule="evenodd"/><path fill="#DCC1B1" d="M 54.25 78.738281 C 54.203125 79.621094 54.273438 81.785156 54.273438 81.785156 C 49.980469 82.5 46.226562 82.285156 43.019531 81.148438 C 43.019531 81.148438 43.035156 80.097656 43.058594 78 C 47.011719 78.980469 50.585938 79.246094 54.25 78.738281" fill-rule="evenodd"/><path fill="#333" d="M 53.839844 81.425781 C 53.824219 80.902344 53.804688 79.9375 53.8125 79.222656 C 52.117188 79.425781 50.441406 79.464844 48.734375 79.351562 C 47.027344 79.234375 45.289062 78.960938 43.476562 78.535156 L 43.449219 80.847656 C 44.9375 81.34375 46.542969 81.640625 48.261719 81.738281 C 50 81.835938 51.859375 81.730469 53.839844 81.425781 Z M 54.675781 78.769531 C 54.628906 79.644531 54.699219 81.769531 54.699219 81.773438 C 54.703125 81.988281 54.550781 82.167969 54.34375 82.199219 C 52.167969 82.5625 50.125 82.691406 48.214844 82.582031 C 46.300781 82.476562 44.519531 82.128906 42.878906 81.546875 C 42.695312 81.480469 42.582031 81.300781 42.597656 81.113281 L 42.632812 77.996094 C 42.636719 77.765625 42.824219 77.578125 43.058594 77.578125 C 43.09375 77.578125 43.125 77.582031 43.160156 77.589844 C 45.109375 78.074219 46.96875 78.382812 48.789062 78.503906 C 50.609375 78.628906 52.390625 78.570312 54.191406 78.320312 C 54.425781 78.289062 54.640625 78.449219 54.671875 78.679688 C 54.675781 78.710938 54.675781 78.742188 54.675781 78.769531" fill-rule="evenodd"/><path fill="#333" d="M 66.296875 15.980469 C 66.414062 15.878906 66.589844 15.890625 66.695312 16.007812 C 66.796875 16.125 66.789062 16.300781 66.671875 16.402344 L 42.175781 37.949219 C 42.058594 38.050781 41.882812 38.042969 41.777344 37.925781 C 41.671875 37.808594 41.683594 37.628906 41.800781 37.527344 L 66.296875 15.980469" fill-rule="evenodd"/><path fill="#333" d="M 43.835938 38.328125 C 43.722656 38.4375 43.542969 38.429688 43.4375 38.316406 C 43.328125 38.203125 43.335938 38.027344 43.445312 37.917969 L 51.738281 30.167969 C 51.851562 30.0625 52.03125 30.066406 52.136719 30.179688 C 52.246094 30.292969 52.238281 30.472656 52.125 30.578125 L 43.835938 38.328125" fill-rule="evenodd"/><path fill="#333" d="M 81.136719 16.417969 C 81.253906 16.316406 81.433594 16.328125 81.535156 16.441406 C 81.640625 16.558594 81.628906 16.738281 81.511719 16.839844 L 72.28125 25 C 72.164062 25.101562 71.984375 25.089844 71.882812 24.972656 C 71.78125 24.855469 71.789062 24.679688 71.90625 24.578125 L 81.136719 16.417969" fill-rule="evenodd"/><path fill="#333" d="M 48.648438 39.058594 C 48.53125 39.160156 48.355469 39.148438 48.25 39.035156 C 48.144531 38.917969 48.15625 38.738281 48.273438 38.636719 L 73.546875 16.195312 C 73.660156 16.09375 73.839844 16.101562 73.945312 16.21875 C 74.046875 16.335938 74.039062 16.515625 73.921875 16.617188 L 48.648438 39.058594" fill-rule="evenodd"/><path fill="#333" d="M 50.597656 39.21875 C 50.484375 39.324219 50.304688 39.316406 50.199219 39.203125 C 50.09375 39.085938 50.097656 38.910156 50.214844 38.804688 L 55.078125 34.339844 C 55.191406 34.230469 55.371094 34.238281 55.476562 34.355469 C 55.582031 34.46875 55.574219 34.648438 55.460938 34.753906 L 50.597656 39.21875" fill-rule="evenodd"/><path fill="#333" d="M 55.136719 39.398438 C 55.023438 39.503906 54.84375 39.492188 54.738281 39.378906 C 54.636719 39.261719 54.644531 39.085938 54.761719 38.980469 L 65.195312 29.703125 C 65.3125 29.601562 65.492188 29.609375 65.597656 29.726562 C 65.699219 29.84375 65.691406 30.019531 65.574219 30.125 L 55.136719 39.398438" fill-rule="evenodd"/><path fill="#333" d="M 78.9375 16.355469 C 79.054688 16.25 79.234375 16.261719 79.339844 16.378906 C 79.441406 16.492188 79.433594 16.671875 79.316406 16.777344 L 75.796875 19.90625 C 75.679688 20.007812 75.5 20 75.398438 19.882812 C 75.292969 19.769531 75.304688 19.589844 75.417969 19.484375 L 78.9375 16.355469" fill-rule="evenodd"/><path fill="#333" d="M 71.804688 16.140625 C 71.921875 16.039062 72.101562 16.054688 72.203125 16.171875 C 72.304688 16.289062 72.292969 16.46875 72.175781 16.570312 L 68.410156 19.804688 C 68.292969 19.90625 68.113281 19.890625 68.011719 19.773438 C 67.910156 19.65625 67.921875 19.476562 68.039062 19.375 L 71.804688 16.140625" fill-rule="evenodd"/><path fill="#333" d="M 68.996094 16.0625 C 69.113281 15.957031 69.292969 15.96875 69.394531 16.082031 C 69.5 16.199219 69.492188 16.378906 69.375 16.484375 L 60.570312 24.394531 C 60.453125 24.5 60.273438 24.492188 60.167969 24.375 C 60.0625 24.257812 60.074219 24.082031 60.191406 23.976562 L 68.996094 16.0625" fill-rule="evenodd"/><path fill="#333" d="M 31.488281 21.371094 C 31.363281 21.464844 31.1875 21.4375 31.09375 21.3125 C 31 21.1875 31.027344 21.011719 31.152344 20.917969 L 41.148438 13.566406 C 41.273438 13.472656 41.453125 13.5 41.542969 13.625 C 41.636719 13.746094 41.609375 13.925781 41.484375 14.015625 L 31.488281 21.371094" fill-rule="evenodd"/><path fill="#333" d="M 32.890625 21.738281 C 32.765625 21.832031 32.585938 21.804688 32.496094 21.679688 C 32.402344 21.554688 32.429688 21.375 32.554688 21.285156 L 37.5625 17.628906 C 37.691406 17.539062 37.867188 17.5625 37.960938 17.691406 C 38.050781 17.816406 38.023438 17.992188 37.898438 18.085938 L 32.890625 21.738281" fill-rule="evenodd"/><path fill="#333" d="M 51.265625 11.335938 C 51.390625 11.246094 51.566406 11.269531 51.660156 11.394531 C 51.753906 11.519531 51.730469 11.695312 51.605469 11.789062 L 37.625 22.183594 C 37.5 22.273438 37.320312 22.25 37.226562 22.125 C 37.132812 22 37.160156 21.820312 37.285156 21.730469 L 51.265625 11.335938" fill-rule="evenodd"/><path fill="#333" d="M 56.90625 3.546875 C 57.03125 3.453125 57.207031 3.476562 57.304688 3.601562 C 57.398438 3.722656 57.375 3.898438 57.253906 3.996094 L 51.289062 8.605469 C 51.164062 8.699219 50.988281 8.675781 50.890625 8.554688 C 50.792969 8.429688 50.816406 8.253906 50.941406 8.15625 L 56.90625 3.546875" fill-rule="evenodd"/><path fill="#333" d="M 58.480469 3.734375 C 58.605469 3.640625 58.78125 3.667969 58.875 3.796875 C 58.964844 3.921875 58.9375 4.097656 58.8125 4.191406 L 55.148438 6.808594 C 55.023438 6.898438 54.847656 6.867188 54.753906 6.742188 C 54.664062 6.617188 54.691406 6.441406 54.820312 6.347656 L 58.480469 3.734375" fill-rule="evenodd"/><path fill="#333" d="M 29.65625 22.421875 C 29.773438 22.316406 29.953125 22.328125 30.054688 22.445312 C 30.160156 22.5625 30.148438 22.738281 30.03125 22.84375 L 22.476562 29.535156 C 22.359375 29.636719 22.179688 29.628906 22.074219 29.511719 C 21.972656 29.394531 21.984375 29.214844 22.101562 29.113281 L 29.65625 22.421875" fill-rule="evenodd"/><path fill="#333" d="M 21.023438 29.324219 C 20.90625 29.429688 20.726562 29.421875 20.621094 29.308594 C 20.515625 29.195312 20.523438 29.015625 20.640625 28.910156 L 25.257812 24.6875 C 25.371094 24.582031 25.550781 24.585938 25.65625 24.703125 C 25.761719 24.816406 25.753906 24.996094 25.640625 25.101562 L 21.023438 29.324219" fill-rule="evenodd"/><path fill="#333" d="M 29.671875 24.121094 C 29.785156 24.015625 29.964844 24.023438 30.070312 24.136719 C 30.175781 24.25 30.171875 24.429688 30.054688 24.535156 L 24.46875 29.683594 C 24.355469 29.792969 24.175781 29.785156 24.070312 29.671875 C 23.964844 29.554688 23.972656 29.378906 24.085938 29.273438 L 29.671875 24.121094" fill-rule="evenodd"/><path fill="#333" d="M 6.988281 37.214844 C 6.867188 37.3125 6.691406 37.296875 6.589844 37.175781 C 6.492188 37.054688 6.507812 36.875 6.628906 36.777344 L 14.972656 29.945312 C 15.09375 29.847656 15.273438 29.863281 15.371094 29.984375 C 15.472656 30.101562 15.453125 30.28125 15.335938 30.378906 L 6.988281 37.214844" fill-rule="evenodd"/><path fill="#333" d="M 9.054688 37.464844 C 8.9375 37.566406 8.757812 37.554688 8.65625 37.4375 C 8.554688 37.320312 8.5625 37.144531 8.679688 37.039062 L 12.695312 33.519531 C 12.8125 33.417969 12.992188 33.429688 13.09375 33.546875 C 13.199219 33.664062 13.1875 33.84375 13.070312 33.945312 L 9.054688 37.464844" fill-rule="evenodd"/><path fill="#333" d="M 77.964844 42.925781 C 77.914062 42.777344 77.996094 42.617188 78.144531 42.570312 C 78.292969 42.523438 78.453125 42.601562 78.5 42.75 L 78.644531 43.171875 C 78.691406 43.320312 78.609375 43.480469 78.460938 43.527344 C 78.316406 43.578125 78.152344 43.5 78.105469 43.351562 L 77.964844 42.925781" fill-rule="evenodd"/><path fill="#333" d="M 69.644531 42.9375 C 69.628906 42.78125 69.742188 42.644531 69.898438 42.628906 C 70.054688 42.613281 70.191406 42.726562 70.207031 42.878906 L 70.277344 43.585938 C 70.292969 43.742188 70.179688 43.878906 70.023438 43.894531 C 69.867188 43.910156 69.730469 43.796875 69.714844 43.644531 L 69.644531 42.9375" fill-rule="evenodd"/><path fill="#333" d="M 78.019531 34.210938 C 77.863281 34.210938 77.734375 34.082031 77.734375 33.925781 C 77.734375 33.773438 77.863281 33.644531 78.019531 33.644531 L 78.375 33.644531 C 78.53125 33.644531 78.660156 33.773438 78.660156 33.925781 C 78.660156 34.082031 78.53125 34.210938 78.375 34.210938 L 78.019531 34.210938" fill-rule="evenodd"/><path fill="#333" d="M 77.785156 73.402344 C 77.695312 73.269531 77.734375 73.097656 77.863281 73.011719 C 77.992188 72.921875 78.167969 72.960938 78.257812 73.089844 L 78.539062 73.515625 C 78.625 73.644531 78.589844 73.820312 78.460938 73.90625 C 78.328125 73.992188 78.152344 73.957031 78.066406 73.824219 L 77.785156 73.402344" fill-rule="evenodd"/><path fill="#333" d="M 63.292969 63.691406 C 63.375 63.558594 63.550781 63.515625 63.683594 63.597656 C 63.816406 63.679688 63.859375 63.855469 63.777344 63.988281 L 63.210938 64.90625 C 63.128906 65.042969 62.953125 65.082031 62.820312 65 C 62.683594 64.917969 62.644531 64.746094 62.726562 64.613281 L 63.292969 63.691406" fill-rule="evenodd"/><path fill="#333" d="M 63.195312 93.386719 C 63.082031 93.277344 63.082031 93.097656 63.195312 92.988281 C 63.304688 92.875 63.484375 92.875 63.59375 92.988281 L 64.089844 93.480469 C 64.203125 93.59375 64.203125 93.773438 64.089844 93.882812 C 63.980469 93.992188 63.800781 93.992188 63.691406 93.882812 L 63.195312 93.386719" fill-rule="evenodd"/><path fill="#333" d="M 72.054688 89.964844 C 71.917969 89.882812 71.875 89.710938 71.953125 89.578125 C 72.035156 89.445312 72.210938 89.402344 72.34375 89.480469 L 72.699219 89.691406 C 72.832031 89.773438 72.875 89.945312 72.796875 90.078125 C 72.714844 90.210938 72.539062 90.253906 72.40625 90.175781 L 72.054688 89.964844" fill-rule="evenodd"/><path fill="#333" d="M 47.777344 23.078125 C 47.753906 22.921875 47.863281 22.78125 48.019531 22.757812 C 48.171875 22.734375 48.316406 22.84375 48.339844 22.996094 L 48.410156 23.492188 C 48.429688 23.648438 48.324219 23.789062 48.167969 23.8125 C 48.015625 23.832031 47.871094 23.726562 47.847656 23.570312 L 47.777344 23.078125" fill-rule="evenodd"/><path fill="#333" d="M 58.71875 14.191406 C 58.566406 14.15625 58.46875 14.007812 58.503906 13.855469 C 58.535156 13.703125 58.6875 13.605469 58.839844 13.640625 L 59.480469 13.78125 C 59.632812 13.8125 59.726562 13.964844 59.695312 14.117188 C 59.660156 14.269531 59.507812 14.363281 59.355469 14.332031 L 58.71875 14.191406" fill-rule="evenodd"/><path fill="#333" d="M 52.175781 14.550781 C 52.175781 14.394531 52.304688 14.269531 52.460938 14.269531 C 52.617188 14.269531 52.746094 14.394531 52.746094 14.550781 L 52.746094 14.976562 C 52.746094 15.132812 52.617188 15.257812 52.460938 15.257812 C 52.304688 15.257812 52.175781 15.132812 52.175781 14.976562 L 52.175781 14.550781" fill-rule="evenodd"/><path fill="#333" d="M 21.574219 33.289062 C 21.574219 33.136719 21.703125 33.007812 21.859375 33.007812 C 22.015625 33.007812 22.144531 33.136719 22.144531 33.289062 L 22.144531 33.703125 L 22.378906 34.054688 C 22.464844 34.183594 22.429688 34.359375 22.300781 34.445312 C 22.171875 34.53125 21.992188 34.496094 21.90625 34.367188 L 21.632812 33.957031 C 21.597656 33.910156 21.574219 33.851562 21.574219 33.785156 L 21.574219 33.289062" fill-rule="evenodd"/><path fill="#333" d="M 20.042969 39.585938 C 19.921875 39.484375 19.910156 39.308594 20.011719 39.1875 C 20.113281 39.070312 20.292969 39.054688 20.410156 39.15625 L 20.90625 39.582031 C 21.027344 39.683594 21.039062 39.863281 20.9375 39.980469 C 20.835938 40.097656 20.65625 40.113281 20.539062 40.011719 L 20.042969 39.585938" fill-rule="evenodd"/><path fill="#333" d="M 27.117188 37.523438 C 26.964844 37.488281 26.871094 37.332031 26.910156 37.183594 C 26.949219 37.03125 27.101562 36.9375 27.253906 36.976562 L 27.535156 37.046875 C 27.6875 37.085938 27.78125 37.238281 27.742188 37.390625 C 27.707031 37.542969 27.550781 37.632812 27.398438 37.597656 L 27.117188 37.523438" fill-rule="evenodd"/><path fill="#333" d="M 19.09375 102.132812 C 18.957031 102.054688 18.910156 101.882812 18.984375 101.75 C 19.0625 101.613281 19.234375 101.5625 19.371094 101.640625 L 20.007812 101.992188 C 20.148438 102.070312 20.195312 102.238281 20.117188 102.375 C 20.042969 102.511719 19.871094 102.5625 19.734375 102.484375 L 19.09375 102.132812" fill-rule="evenodd"/><path fill="#333" d="M 23.148438 108.699219 C 23.015625 108.785156 22.839844 108.746094 22.757812 108.613281 C 22.671875 108.484375 22.710938 108.308594 22.84375 108.222656 L 23.625 107.730469 C 23.757812 107.644531 23.929688 107.683594 24.015625 107.816406 C 24.097656 107.945312 24.058594 108.121094 23.929688 108.203125 L 23.148438 108.699219" fill-rule="evenodd"/><path fill="#333" d="M 27.722656 102.675781 C 27.597656 102.578125 27.574219 102.402344 27.671875 102.277344 C 27.765625 102.15625 27.945312 102.132812 28.070312 102.226562 L 28.992188 102.933594 C 29.113281 103.03125 29.136719 103.207031 29.042969 103.332031 C 28.945312 103.453125 28.769531 103.476562 28.644531 103.382812 L 27.722656 102.675781" fill-rule="evenodd"/></svg>